<svg xmlns="http://www.w3.org/2000/svg" xmlns:xlink="http://www.w3.org/1999/xlink" viewBox="0 0 1159.9 803"><defs><linearGradient id="a" x1="-379.33" y1="942.04" x2="-378.28" y2="942.04" gradientTransform="matrix(-65.81, -752.21, -752.21, 65.81, 684250.06, -346520.72)" gradientUnits="userSpaceOnUse"><stop offset="0" stop-color="#f74c00"/><stop offset="0.33" stop-color="#f74c00"/><stop offset="1" stop-color="#f49600"/></linearGradient><linearGradient id="b" x1="578.58" y1="654.12" x2="578.58" y2="556.54" gradientUnits="userSpaceOnUse"><stop offset="0" stop-color="#cc3a00"/><stop offset="0.15" stop-color="#cc3a00"/><stop offset="0.74" stop-color="#f74c00"/><stop offset="1" stop-color="#f74c00"/></linearGradient><linearGradient id="c" x1="-379.63" y1="941.12" x2="-378.59" y2="941.12" gradientTransform="matrix(0, -267.21, -267.21, 0, 252276.93, -100670.41)" xlink:href="#b"/><linearGradient id="d" x1="-379.7" y1="941.03" x2="-378.66" y2="941.03" gradientTransform="matrix(0, -239.02, -239.02, 0, 225300.47, -89972.92)" xlink:href="#b"/><linearGradient id="e" x1="580.83" y1="577.97" x2="580.83" y2="201.5" xlink:href="#b"/></defs><g style="opacity:0.3"><path d="M577.1,348.8c-126.1,0-240.7,15.1-325.5,39.9v211c84.8,24.8,199.4,39.9,325.5,39.9,144.4,0,273.6-19.8,360.4-51.2V400c-86.8-31.4-216-51.2-360.4-51.2m490.5,171.5-14.8-30.6c.1-1.2.1-2.4.1-3.5,0-34.8-36.1-66.8-96.8-92.4V578.5c28.3-11.9,51.3-25.3,67.7-39.6-4.8,19.4-21.3,58.8-34.5,86.5-21.7,39.6-29.6,74-28.6,75.8s8.1-10.4,19-28.9c25.4-36.2,73.5-105.2,83.1-122.8,10.9-20,4.8-29.2,4.8-29.2M110.8,488.2a52,52,0,0,0,3.9,19.7l-8.8,15.8s-7.1,9.2,5.4,28.6c11,17.1,66.2,84.1,95.3,119.2,12.5,18,21,29.1,21.7,28s-7.7-35.4-32.6-74c-11.6-20.7-25.4-48.1-33.7-68.4,23.2,14.7,53.5,28.1,89.6,39.5V379.8c-86.9,27.6-140.8,66-140.8,108.4" style="fill:#a52b00"/><path d="M561.4,28,532.5,76.3l-14.1,1.2L480.9,35.8a14.2,14.2,0,0,0-14.6-5,16.9,16.9,0,0,0-11.7,10.5L435.6,95a63.9,63.9,0,0,0-13,4.3l-44.8-34c-4.2-2.7-10.6-3.8-15.1-1.8a18.4,18.4,0,0,0-10,12.7L343.5,133l-12,6.6-49.4-23.3a13.9,13.9,0,0,0-15.6,1.4c-4.5,2.7-7.2,8.5-7.5,14l1.9,57.4-10.3,8.8-53.1-12.7c-5.7-1.9-11.1.2-15.4,4.5a17.3,17.3,0,0,0-4.2,15.4l12.8,55.6a111.3,111.3,0,0,0-8.5,11l-55.4-2.2a14.1,14.1,0,0,0-13.6,7.5c-2.7,4.9-3.7,11.3-.9,16.6L135,345.2l-6.8,12.5-53.6,9.4A15.7,15.7,0,0,0,62,376.8a20.7,20.7,0,0,0,1.5,16.5l32.4,46-.6,2.4L4.4,538s-13.3,10.6,6.3,36.5c17.7,22.1,109.1,111.1,157.4,158.2a211.8,211.8,0,0,0,35.6,37.1c2.1-2.6-9.6-45.7-49.4-95.9-30.8-45.4-70.8-115.2-62.1-123.1,0,0,10.7-13.5,32.7-23.3h0s452.7,208.8,872.4,3.3c48.1-8.9,77.2,16.9,77.2,16.9,10,6.2-16.1,77.9-37.1,125.5-29.2,53.8-33.4,95.9-30.9,97.3a193,193,0,0,0,27.1-41c37.3-51.4,106.8-149.7,119.7-173.7,14.9-27.3,0-35.5,0-35.5l-96.9-71.2-2.5-10,31.5-46.1c3.6-4.3,3.8-10.6,1.8-15.9a15.5,15.5,0,0,0-12-10l-54.4-9.5-5.8-12.1,22.2-52.4a15.7,15.7,0,0,0-1.4-16.4,14.2,14.2,0,0,0-13.2-6.8l-55.1,1.7-8.8-11.1L971.2,205a18.2,18.2,0,0,0-3.7-15.4,15.9,15.9,0,0,0-15.5-5L898.8,198a130.3,130.3,0,0,1-10.3-9.4l1.4-56.9a18.6,18.6,0,0,0-6.8-14.4,14.2,14.2,0,0,0-15.9-.9L818,139.6l-12.4-6.8-8.9-56A15.7,15.7,0,0,0,787,64.2a14.3,14.3,0,0,0-15.7,1.4L726.9,98.7,714,95.1,695.1,41.5a16.8,16.8,0,0,0-12-10.8A16.6,16.6,0,0,0,667.8,36L630.4,77.9,616.9,76,588.2,28a15.7,15.7,0,0,0-13.3-8.3c-5.6-.3-10.8,3.3-13.5,8.3Z" style="fill:url(#a)"/><path d="M424.2,654.1l-2.6-2.3,148.3-12.2C448.9,480,352,607.2,341.7,621.4v32.7ZM733,652.4l2.6-2.4L593.1,639.6c121-166.1,212.1-34.2,222.4-19.9v32.7Z" style="fill:url(#b)"/><path d="M960.9,494s-16.1,64.5-117,132.3L815.8,633s-91.5-166.8-221,21.1c0,0,40.3-23.4,148.5,5.3,0,0-49.8,76.1-149.9,73.6,0,0,95.9,115.4,242.1-51.1,0,0,154.6-59.8,167.1-187.9Z" style="fill:url(#c)"/><path d="M660.4,411.3s45.3-49.5,90.5,0c0,0,35.6,66,0,99.1,0,0-58.2,46.2-90.5,0,0,0-38.8-36.4,0-99.1"/><path d="M712.8,429.7c0,19.3-11.4,34.9-25.4,34.9S662,449,662,429.7s11.4-35,25.4-35,25.4,15.7,25.4,35" style="fill:#fff"/><path d="M458.5,397.8s77.6-34.4,98.8,42.3c0,0,22.2,89.4-63.7,94.4,0,0-109.6-21.1-35.1-136.7"/><path d="M497.5,430.9c0,19.9-11.7,36.1-26.2,36.1s-26.2-16.2-26.2-36.1,11.7-36,26.2-36,26.2,16.1,26.2,36" style="fill:#fff"/><path d="M342.1,692.1C483.9,873.8,551,727.9,551,727.9c-79.6-9-136-61.9-136-61.9,95.5-12.2,150.7-13.2,150.7-13.2-127.8-168.6-231.5-15.9-231.5-15.9-25.9-9.5-52.5-45.5-72.1-78.9l-79.4-23.3C274,689.8,342.1,692.1,342.1,692.1Z" style="fill:url(#d)"/></g><path d="M510.2,287.8h102c62.7,0,62.7,62.7,0,62.7h-102ZM267.1,578H580.8V491.7H510.2V429h78.5c86.2,0,39.2,149,109.8,149H894.6V429H847.5v15.6c0,62.8-70.6,54.9-78.4,15.7s-39.2-70.6-47.1-70.6c117.7-62.7,47.1-188.2-47.1-188.2H306.3v86.3h78.5V491.7H267.1Z" style="stroke:#000;stroke-linejoin:round;fill:url(#e)"/><circle cx="576.9" cy="401.5" r="337.3" style="fill:none;stroke:#000;stroke-width:9px"/><polygon points="937.7 425 976.9 401.5 937.7 378 937.7 425" style="stroke:#000;stroke-linejoin:round;stroke-width:3px"/><polygon points="926.2 495 969.2 479.5 935.4 448.8 926.2 495" style="stroke:#000;stroke-linejoin:round;stroke-width:2.999999913473566px"/><polygon points="901.2 561.3 946.5 554.6 919.2 517.8 901.2 561.3" style="stroke:#000;stroke-linejoin:round;stroke-width:2.999999914397147px"/><polygon points="863.8 621.5 909.5 623.7 890 582.4 863.8 621.5" style="stroke:#000;stroke-linejoin:round;stroke-width:2.9999999775350528px"/><polygon points="815.4 673.3 859.8 684.3 848.7 640 815.4 673.3" style="stroke:#000;stroke-linejoin:round;stroke-width:2.999999948657187px"/><polygon points="757.8 714.6 799.1 734.1 796.9 688.4 757.8 714.6" style="stroke:#000;stroke-linejoin:round;stroke-width:2.9999999775350528px"/><polygon points="693.2 743.8 730 771.1 736.7 725.8 693.2 743.8" style="stroke:#000;stroke-linejoin:round;stroke-width:2.9999999143971467px"/><polygon points="624.2 759.9 654.9 793.8 670.4 750.8 624.2 759.9" style="stroke:#000;stroke-linejoin:round;stroke-width:2.999999913473566px"/><polygon points="553.4 762.3 576.9 801.5 600.4 762.3 553.4 762.3" style="stroke:#000;stroke-linejoin:round;stroke-width:3px"/><polygon points="483.4 750.8 498.9 793.8 529.6 759.9 483.4 750.8" style="stroke:#000;stroke-linejoin:round;stroke-width:2.999999913473566px"/><polygon points="417.1 725.8 423.8 771.1 460.6 743.8 417.1 725.8" style="stroke:#000;stroke-linejoin:round;stroke-width:2.9999999143971467px"/><polygon points="356.9 688.4 354.7 734.1 396 714.6 356.9 688.4" style="stroke:#000;stroke-linejoin:round;stroke-width:2.9999999775350528px"/><polygon points="305.2 640 294.1 684.3 338.4 673.3 305.2 640" style="stroke:#000;stroke-linejoin:round;stroke-width:2.999999948657187px"/><polygon points="263.9 582.4 244.3 623.7 290 621.5 263.9 582.4" style="stroke:#000;stroke-linejoin:round;stroke-width:2.9999999775350528px"/><polygon points="234.6 517.8 207.4 554.6 252.6 561.3 234.6 517.8" style="stroke:#000;stroke-linejoin:round;stroke-width:2.999999914397147px"/><polygon points="218.5 448.8 184.6 479.5 227.6 495 218.5 448.8" style="stroke:#000;stroke-linejoin:round;stroke-width:2.999999913473566px"/><polygon points="216.1 378 176.9 401.5 216.1 425 216.1 378" style="stroke:#000;stroke-linejoin:round;stroke-width:3px"/><polygon points="227.6 308 184.6 323.5 218.5 354.2 227.6 308" style="stroke:#000;stroke-linejoin:round;stroke-width:2.999999913473566px"/><polygon points="252.6 241.7 207.4 248.4 234.6 285.2 252.6 241.7" style="stroke:#000;stroke-linejoin:round;stroke-width:2.999999914397147px"/><polygon points="290 181.5 244.3 179.3 263.9 220.6 290 181.5" style="stroke:#000;stroke-linejoin:round;stroke-width:2.9999999775350528px"/><polygon points="338.4 129.7 294.1 118.7 305.2 163 338.4 129.7" style="stroke:#000;stroke-linejoin:round;stroke-width:2.999999948657187px"/><polygon points="396 88.4 354.7 68.9 356.9 114.6 396 88.4" style="stroke:#000;stroke-linejoin:round;stroke-width:2.9999999775350528px"/><polygon points="460.6 59.2 423.8 31.9 417.1 77.2 460.6 59.2" style="stroke:#000;stroke-linejoin:round;stroke-width:2.9999999143971467px"/><polygon points="529.6 43.1 498.9 9.2 483.4 52.2 529.6 43.1" style="stroke:#000;stroke-linejoin:round;stroke-width:2.999999913473566px"/><polygon points="600.4 40.7 576.9 1.5 553.4 40.7 600.4 40.7" style="stroke:#000;stroke-linejoin:round;stroke-width:3px"/><polygon points="670.4 52.2 654.9 9.2 624.2 43.1 670.4 52.2" style="stroke:#000;stroke-linejoin:round;stroke-width:2.999999913473566px"/><polygon points="736.7 77.2 730 31.9 693.2 59.2 736.7 77.2" style="stroke:#000;stroke-linejoin:round;stroke-width:2.9999999143971467px"/><polygon points="796.9 114.6 799.1 68.9 757.8 88.4 796.9 114.6" style="stroke:#000;stroke-linejoin:round;stroke-width:2.9999999775350528px"/><polygon points="848.7 163 859.8 118.7 815.4 129.7 848.7 163" style="stroke:#000;stroke-linejoin:round;stroke-width:2.999999948657187px"/><polygon points="890 220.6 909.5 179.3 863.8 181.5 890 220.6" style="stroke:#000;stroke-linejoin:round;stroke-width:2.9999999775350528px"/><polygon points="919.2 285.2 946.5 248.4 901.2 241.7 919.2 285.2" style="stroke:#000;stroke-linejoin:round;stroke-width:2.999999914397147px"/><polygon points="935.4 354.2 969.2 323.5 926.2 308 935.4 354.2" style="stroke:#000;stroke-linejoin:round;stroke-width:2.999999913473566px"/><polygon points="522 72.1 576.9 127 631.8 72.1 522 72.1" style="stroke:#000;stroke-linejoin:round;stroke-width:6px"/><polygon points="873.2 247.5 838 316.7 907.2 351.9 873.2 247.5" style="stroke:#000;stroke-linejoin:round;stroke-width:6.000000150556152px"/><polygon points="815 635.7 738.3 623.6 726.1 700.3 815 635.7" style="stroke:#000;stroke-linejoin:round;stroke-width:6.00000001055319px"/><polygon points="427.7 700.3 415.6 623.6 338.9 635.7 427.7 700.3" style="stroke:#000;stroke-linejoin:round;stroke-width:6.00000001055319px"/><polygon points="246.7 351.9 315.8 316.7 280.6 247.5 246.7 351.9" style="stroke:#000;stroke-linejoin:round;stroke-width:6.000000150556152px"/><path d="M32.4,746.5c2.5-8.2,4.4-16.5,7.5-24.5,9.7-24.6,24-46.5,39.9-67.4,18.9-24.7,40-47.3,65.2-65.8a133.6,133.6,0,0,1,30.7-17.6l4.7-1.6c-1.6,5.5-2.7,10.4-4.4,15.2-8.1,23.1-20.1,44.3-33.2,64.8-20.1,31.3-42.6,60.6-69.5,86.5-13.5,13.1-28.9,23.4-46.9,29.5a11.4,11.4,0,0,0-3.8,2.8c-5.4,5.9-10.7,11.9-15.8,18.7,3.4-.4,6.9-.6,10.4-1.2,17.2-3.1,33.1-10.1,49.2-16.5,10.5-4.1,21.2-8.1,31.9-11.9a27.4,27.4,0,0,1,8.1-1.2c5.9-.1,8,2.7,6.1,8.4-.9,2.6-2.4,5.2-3.8,8.4,4.3-.5,8-1.1,11.8-1.4,8.7-.7,17.4-1.5,26.1-2,4-.2,7.4.8,7.9,5.9.3,3,2.6,4.9,5.5,5.4,8.1,1.4,16.3,2.5,24.4,3.7,2,.2,4,0,6.7,0-9.3,2.4-26.2,1.3-34.3-1.9-3.2-1.3-5.8-3.2-7-6.8-.3-1.1-2.4-2.3-3.7-2.3-6,.2-12.2.2-18.1,1.1-7.6,1.2-14.9,3.3-22.4,4.8-1.7.3-3.7-.6-5.5-.9a31.6,31.6,0,0,1,1.4-5.5c.7-1.7,2.3-3.3,3-5.1s.8-4,1.2-5.9c-2-.2-4.1-.8-6.1-.5a45.8,45.8,0,0,0-8.2,2.5c-17.7,6.4-35.3,13.1-53.1,19.2-12.2,4.3-24.7,7.1-38.2,6.7,6.7-8.8,13.3-17.4,20-25.8a10.9,10.9,0,0,1,4.4-3.3c33.7-13.8,57.9-38.8,78.9-67.2,14.3-19.3,27.1-39.8,40.5-59.8l.3-1.1L131.5,639l-.3-.7c4.9-3.3,9.9-6.5,14.8-9.9a9.8,9.8,0,0,0,3.5-3.2c8.6-15.8,17-31.6,25.5-47.4a10.5,10.5,0,0,0,.5-1.9c-2.5,1.5-4.5,2.6-6.4,3.9-21.3,13.2-39.8,29.6-57.2,47.5-22.1,22.8-41.7,47.4-58.1,74.6-8.5,14.2-15.8,28.9-19.9,45Z" style="fill:#4fd1c5"/><path d="M40.8,745.2c29.5-50.8,65.8-96.4,107.3-137.8C109.4,651.1,72.4,696,40.8,745.2Z" style="fill:#4fd1c5"/><path d="M277.8,710.5c-1,1.4-2.9,4.7-5.8,10.1s-6.8,12.8-11.6,22.3l3.2.5a210.7,210.7,0,0,0,19.2-9.2,154.8,154.8,0,0,0,17-11.1c10.8-8,17.2-15.2,19.3-21.4.6-1.7,1.2-2.5,1.9-2.5s.5.4.5,1.2a3.7,3.7,0,0,1-.1,1.1c-1.3,7.4-7,15.3-17.1,23.6s-20.5,14.1-33.7,19.6c14.5,2.9,26.7,7.1,36.2,12.7,13.5,7.9,20.2,17.7,20.2,29.6a32.8,32.8,0,0,1-1.5,9.8c-.4,1.5-1.1,2.3-2,2.3s-.9-.3-.9-1.2a5,5,0,0,1,.2-1.2,21.3,21.3,0,0,0,1-6.7c0-10.1-6.8-19.2-20.4-26.9-11.5-6.6-25.8-11.6-42.8-14.7l-2,.8-1.9.6c-2.9,5.4-5.6,10.1-8.1,14.2s-5,7.7-7.3,10.8a31.8,31.8,0,0,0,17.9,5.5c4.6,0,7.7-1.1,9.3-3.4.2-.4.5-.4.8,0s.6.7.3,1c-1.7,2.4-5.1,3.7-10,3.7a32.9,32.9,0,0,1-19-5.7c-7.4,9.5-14.2,14.4-20.4,14.4a16.8,16.8,0,0,1-5.9-.8,13.2,13.2,0,0,1-4.8-2.9,14.5,14.5,0,0,1-4.4-10.4c0-.4.1-.9.1-1.3l.2-1.3c.2-1.2.8-1.9,1.9-1.9s.8.4.8,1.2a9.7,9.7,0,0,1-.3,1.8,7.8,7.8,0,0,0-.4,2.2c0,2.8,1.4,5.3,3.9,7.5s5.5,2.7,9.1,2.4c5.2-.6,10.8-5.1,16.8-13.4a59,59,0,0,1-5.1-4.9l-2.3,2.6c-.8,1-2,2.2-3.3,3.5-3.1,3.4-5,5-5.7,5s-1-.3-1-.9.1-.1.3-.3a56.7,56.7,0,0,0,5.8-5.2,73.1,73.1,0,0,0,5.2-5.9,61.8,61.8,0,0,1-6.7-10.2h-6.3a18.9,18.9,0,0,1-9.2-2.3c-2.5-1.4-3.6-3-3.6-4.8,0-3.6,4.4-6.3,13.3-8a66.3,66.3,0,0,1-2.5-18.8c.4-9.6,3-17.2,7.6-23.1s8.7-7.7,14.1-7.7a13.1,13.1,0,0,1,10.8,5.4c2.9,3.7,4.8,9.1,4.8,16s-2.1,16.5-6.2,27.5c2.4.1,4.7.3,7.1.6l4.7-10.6c1.7-4,3.7-8.5,5.8-13.6s3.2-7,3.4-7a9.6,9.6,0,0,1,7.8-4.1c1.6,0,2.4.6,2.4,1.7A3.9,3.9,0,0,1,277.8,710.5Zm-58.2,35.1-1,.2a8,8,0,0,0-4.4,1.7,3.5,3.5,0,0,0-1.7,2.8q0,2.7,5.1,3a41.7,41.7,0,0,0,5,0C221.5,750.8,220.5,748.2,219.6,745.6Zm25.3-4.4c3.8-10.6,5.7-19.7,5.7-27.1s-1.3-11.3-3.9-15-5.5-5-9.1-5-8.6,2.4-12.2,7.3-6.1,13-6.5,22.1a65.2,65.2,0,0,0,2,18.2A113.3,113.3,0,0,1,244.9,741.2Zm-1.5,4.2c-4.4-.4-8.3-.6-11.9-.6s-6.4.1-9.6.4c.4,1.4.8,2.8,1.3,4.1s1,2.6,1.6,3.8a58.4,58.4,0,0,0,6.8-.9l9.6-1.8a27.2,27.2,0,0,1,1.1-2.5ZM232.1,766c1.2-1.8,2.5-3.5,3.6-5.3a54.5,54.5,0,0,0,3.3-5.8l-6.5,1.3c-2.1.4-4.1.6-6,.8A59,59,0,0,0,232.1,766Zm5.9,6.3a81.6,81.6,0,0,0,5.6-8.8c1.8-3.4,3.8-7.1,5.8-11.3l-4.1,1.1-3.9,1.1c-1.2,2.3-2.6,4.6-4,6.8s-2.9,4.2-4.3,6.1A57.5,57.5,0,0,0,238,772.3Zm5.6-22.3q6.6-1.5,6.6-3c0-.8-1.5-1.2-4.6-1.4a20,20,0,0,1-1,2.1C244.3,748.4,244,749.2,243.6,750Z" style="fill:#4fd1c5"/><path d="M367,762c-4.2,8.4-6.3,14.9-6.3,19.6s1.4,5.5,4.4,5.5c4.6,0,10.4-3.8,17.4-11.3.7-.7,1.2-1,1.6-1s.6.3.6.8a2.2,2.2,0,0,1-.8,1.5c-8.5,9-15.7,13.3-21.7,12.7a6.1,6.1,0,0,1-4.3-2.5,9.5,9.5,0,0,1-2.3-6.7,15.2,15.2,0,0,1,.6-4.2c-5.3,6.4-9.5,10.2-12.4,11.7a12.1,12.1,0,0,1-4.6,1.2c-3.4,0-5-2-5-5.8s2-9.8,6.1-17.1c.7-1.3,2.2-2,4.6-2s1.9.6,1.5,1.6a27.9,27.9,0,0,1-1.8,3.4c-.6,1.1-1.2,2.1-1.8,3.3-2.1,4.3-3.2,7.5-3.2,9.7s.7,3.5,2,4.1c3.1,0,6.7-3,11-8.7a70,70,0,0,0,8.8-15.8c.7-1,2.2-1.6,4.2-1.6s1.6.3,1.6.9A1.4,1.4,0,0,1,367,762Z" style="fill:#4fd1c5"/><path d="M396.9,760a19.7,19.7,0,0,0,.3,2.4l.6,2.6c1.2-1.7,2.5-3.4,3.8-5a57.2,57.2,0,0,1,4-4.6q5.3-5.4,9.9-5.4a5.4,5.4,0,0,1,4,1.5,4.6,4.6,0,0,1,1.5,3.7,6,6,0,0,1-.6,2.7c-.5,1-1.1,1.5-1.7,1.5s-1.2-.6-1.3-1.9a4,4,0,0,0-3.7-3.2c-2.1,0-6.4,2.2-10.2,6.6l-2.7,3.2a18.3,18.3,0,0,0-2.4,3.1,33.4,33.4,0,0,0,6.9,12.5c3.4,3.9,7.1,5.8,11.1,5.8a14.4,14.4,0,0,0,6.4-1.6,33.7,33.7,0,0,0,9.9-8,3,3,0,0,1,1.8-1.1.7.7,0,0,1,.5.8,2.4,2.4,0,0,1-.5,1.4,47.3,47.3,0,0,1-11.1,8.3c-4.9,2.8-9,4.2-12.4,4.2s-6.4-1.7-9.6-5.1a37.3,37.3,0,0,1-7.1-10.9,61,61,0,0,0-3.7,7.2c-1.3,2.8-2.6,6.2-4,10.1a7.1,7.1,0,0,1-2.8.9c-2.2,0-3.3-1.6-3.3-4.7a6.4,6.4,0,0,1,.4-2.4c1.2-3.5,2.6-7.7,4.5-12.5s4-10.2,6.6-16.4c6.6-15.7,12.1-26.7,16.5-33.1s7.6-8.1,11.9-8.1,4.7,1.8,4.7,5.5a20.5,20.5,0,0,1-1,5.5C420.9,735.4,411.8,746.8,396.9,760Zm-3.5,11.5a29.2,29.2,0,0,1-1.3-4.2q-5.1,11-6,18A151.8,151.8,0,0,1,393.4,771.5Zm27.1-46.4a14.2,14.2,0,0,0,1.3-5.3c0-1.8-.7-2.7-1.9-2.7s-4.2,2.1-6.8,6.4-6.2,11.4-9,17.2-5.5,11.7-7.9,17.8c2.3-2.3,4.6-4.8,6.9-7.4s4.5-5.4,6.7-8.3,4.8-6.6,6.6-9.5A62.7,62.7,0,0,0,420.5,725.1Z" style="fill:#4fd1c5"/><path d="M464.7,762c-4.2,8.4-6.3,14.9-6.3,19.6s1.4,5.5,4.4,5.5c4.5,0,10.4-3.8,17.3-11.3a2.8,2.8,0,0,1,1.7-1c.4,0,.5.3.5.8a1.8,1.8,0,0,1-.7,1.5c-8.5,9-15.8,13.3-21.7,12.7a5.9,5.9,0,0,1-4.3-2.5,9,9,0,0,1-2.3-6.7,15.2,15.2,0,0,1,.6-4.2c-5.4,6.4-9.5,10.2-12.5,11.7a11.6,11.6,0,0,1-4.5,1.2c-3.4,0-5.1-2-5.1-5.8s2.1-9.8,6.2-17.1c.7-1.3,2.3-2,4.6-2s1.9.6,1.5,1.6l-1.8,3.4a34.7,34.7,0,0,0-1.8,3.3c-2.1,4.3-3.2,7.5-3.2,9.7s.6,3.5,1.9,4.1c3.1,0,6.8-3,11-8.7A66.3,66.3,0,0,0,459,762c.8-1,2.2-1.6,4.3-1.6s1.6.3,1.6.9A1.4,1.4,0,0,1,464.7,762Z" style="fill:#4fd1c5"/><path d="M480.1,789a1.4,1.4,0,0,1-1.5,1,3,3,0,0,1-2.1-1,2.6,2.6,0,0,1-.7-1.8c.2-.6,1.2-2.7,2.1-4.7s2-4.5,3.2-7.3c3.1-7.2,4.6-11.4,4.6-13s1.4-1.2,3.5-2.2,3.5-.8,3.5.9q-2.2,7.1-9.6,22.2l8.7-9.4c3.1-3.2,6.4-6.8,9.9-10.6,1.6-1.8,2.9-2.8,3.8-2.8s.8.4.8,1.1l-.3,1.8c-2.5,8.3-3.7,14.2-3.7,17.5s1.3,5.9,4,5.9,5.6-1.3,8.9-3.9l2.6-2.5,4.5-4.5c.5-.5.9-.8,1.3-.8s.5.2.7.7a1.3,1.3,0,0,1-.3,1.2q-11.2,12.3-19.8,12.3c-5.7,0-7.6-4-7.6-12a27.9,27.9,0,0,1,.3-5.8c-1,.8-2.1,2-3.5,3.3l-4.9,4.6-2.6,2.6a32.2,32.2,0,0,0-2.4,2.8,26.5,26.5,0,0,0-1.7,2.2Z" style="fill:#4fd1c5"/></svg>