<?xml version="1.0" encoding="UTF-8"?><svg id="a" xmlns="http://www.w3.org/2000/svg" xmlns:xlink="http://www.w3.org/1999/xlink" viewBox="0 0 952.9 313.6"><defs><linearGradient id="b" x1="719" y1="313.6" x2="719" y2="204" gradientUnits="userSpaceOnUse"><stop offset="0" stop-color="#7488e6"/><stop offset="1" stop-color="#ffa0c8"/></linearGradient></defs><path id="c" d="M546.3,260.1c-2.5-.5-5,.3-7.5,.8-3.4,.8-5.3,1.3-5.7-2.5-.3-3,.4-6.2,.7-9.1s1.2-8.4-.8-11c-1.9-2.5-5.1-.1-7.9,.2-4.3,.4-10.5-3.1-12.4,2.8-1.1,3.3,0,6.8-.3,10.2,0,.6-.2,1.4-.3,2.1-.4,2.2-1.1,4.7-1.8,6.5-1.3,3-3.6,2-6.6,1.9-3.7-.1-7.4,0-11.1,.5-4,.5-7,.7-7.1,5.3-.1,2.5-.1,4.9-.1,7.4s-.7,5.5,.2,7.1c1.3,2.3,4.9,1,6.8,.6,3.3-.7,6.7-.9,10.1-.5,2.8,.3,5.9,1.8,6.7,4.5,.8,2.8-.9,5.6-1.9,8.3-.8,2.2-2.3,6.8-.9,9,1.2,2,3.7,1.5,5.8,1.6,3.7,.2,10.4,1.7,13.3-1.5,2.5-2.7,2.3-8.3,2.3-11.7s-.3-3.9-.4-5.8c0-4.6,2.7-7.5,7.6-6.5,3.5,.8,11.8,1.7,14.6-1.4,1.2-1.3,1.2-3.9,1.8-5.5,.8-2.3,2-4.5,1.8-7-.3-3.2-4.1-5.7-6.9-6.3h0Zm127.2-3c1.9-4,4.2-7.8,6.8-11.4,1.7-2.3,3.5-4.6,3.9-7.4,.5-3.8-1.9-8.1,.3-11.2,1.1-1.6,3.7-2.9,3.3-5.1-.3-1.8-2.6-3.2-4.2-3.4-1.7-.2-3.4,.4-5.1,.9-3.7,1.2-7.4,2.1-11.2,2.6-3.5,.4-6.2-.1-7.6,3.8-.9,2.6-.5,5.5,0,8.2s.8,5.6-.2,8.2-3.3,4.6-4.9,6.9c-1.8,2.6-2.6,5.8-2.4,8.9,.3,4.5,2.1,8.5,2.1,13s-1.1,9-3.2,13c-.3,.6-.7,1.3-1.3,1.8-1.1,.9-2.8,.9-4.2,.9-1.8-.1-3.8-.2-4.9-1.7-2.3-3-1.7-9.7,0-12.8,.8-1.5,1.9-2.8,2.7-4.3,2-4,1-8.7-.5-12.9-1.4-4.2-3.2-8.5-2.6-12.8,.3-2.6,1.4-5,2.2-7.4,1.7-5.2-.2-10-6.2-10.8-2.8-.4-5.7,.4-8.4,1.4-7.7,2.8-14,6-15.5,14.9-.7,4-.4,8.1-.7,12.2-.4,5.4-1.7,10.6-3.9,15.5-2.3,5.1-5.7,9.1-7.3,14.5-.6,2-2.6,5-5.1,4.1-2.2-.8-2-3.7-1.9-5.6,.3-6.6,2.9-12.8,3.4-19.4,.4-5.1-.5-10.3-.9-15.4-.2-3.5-.2-7.1,.6-10.6,.5-2,2-3.8,1.4-6-.5-1.9-3-4.1-4.7-4.8-2.1-.9-4.4-1-6.6-1.2-6.1-.4-18.4-3.8-18.9,5.8-.5,8.5,7.1,13.3,7.5,21.2,.3,6.1-5.1,11-6.5,16.9-1.6,6.5,1.8,12.9,3.4,19.1,.8,3.3,.9,6,.3,9.3s.6,5.7,2.1,8.8c1.3,2.7,2.7,5.5,5.2,7.1,3,2,7,1.8,10.6,1.4,4.4-.5,9-1.2,12.5-3.8l4.4-3.5c9.7-8.8,10.4-15.9,9.2-23-.6-3.5-1.6-7.2-.5-10.6,.5-1.7,1.6-3.2,2.6-4.6,2.5-3.6,5-7.3,7.5-10.9,3.1,5.8,3.7,12.8,3,19.4s-2.6,13-4.1,19.4c-.8,3.3-1.5,6.7-.2,10,.3,.7,.6,1.4,1.1,1.9,5.3,6.7,17-1.9,22.5-4.4,2.7-1.2,5.9-2.4,8.4-.9,.8,.5,1.5,1.3,2.3,1.7,1.8,.9,4.9,.4,6.1-1.1,2.8-3.5,3.5-8.3,3.5-12.8s-.9-9-.7-13.5c.3-6.9,2.6-13.4,5.6-19.5h0Zm79.5,39.9c-.7-1.2-1.9-2.3-2.5-3.6s-.8-2.8-.8-4.3c0-5.7,2.3-11.2,2-16.9-.4-7-4.8-13.8-3.2-20.6,.7-2.8,2.4-5.3,3.7-7.9s2.1-5.7,1.1-8.4-3.8-4.6-4.2-7.4c-.4-2.5,1.1-4.8,1.4-7.3,.4-2.7-1-5.9-3.6-6.6-1.4-.4-3-.1-4.4,.3-5.5,1.3-11.3,2.9-15,7.1-.5,.5-.9,1.1-1.5,1.6-2.2,1.6-5.2,.1-7.4-1.6s-4.6-3.7-7.2-3.1c-3.9,.9-4.1,5.3-4,8.4,.2,4.9,.2,9-1.8,13.7-2.2,5-5.4,9.5-8.1,14.2-2.6,4.5-4.7,9.2-6.8,13.9-2.4,5.4-4.2,10.5-5.1,16.4-1,6.3-5.8,3.7-8.8,8.5-2.5,4.1,2.7,11.9,6.8,12.9,1.8,.5,3.8,.2,5.6-.1s3.8-.6,5.6-.3c1.4,.2,2.8,.8,4.2,1.2,3.5,.9,6.5-.6,6.2-4.6-.2-1.9-1-3.6-1.7-5.4s-1.2-3.8-.5-5.6c1-3,4.8-4.3,8-4.2,4.2,0,8.4,1.4,11.5,4.3,3.3,3.1,3.6,6.2,4.3,10.3,.6,3.9,2.4,4.6,6.8,5.1,3.6,.4,7.2-.1,10.8-.3,2.5-.1,8.6,1.7,10.6-.4,1.8-2-.6-6.2-1.3-8.4-.4-.3-.5-.6-.7-.9h0Zm-22.8-32.6c-.3,.6-.7,1.1-1.1,1.5-2.3,2.8-5.4,4.2-8.4,6.2-2.1,1.4-5.2,.3-6.3-1.9-.7-1.4-.7-3-.4-4.5,.2-1.5,.7-3,1-4.5,.4-2.6,0-5.3,.6-7.9,.5-2.4,1.5-4.6,2.6-6.8,1.5-3,3-6.2,5.6-8.4,3.3-2.9,7.1,.6,7.4,4.1,0,1.5-.2,3.1,0,4.6,0,2.3,.9,4.4,1.3,6.7,.5,3.8-.2,7.7-2.2,10.9h0Zm67.7-32.5c3.5-1.6,6.7-.4,10.2-.5,2.2-.1,4.8-2.1,6.9-.6,1.2,.9,1.8,2.4,2,3.9s.2,3,.6,4.4c.4,1.3,1.3,2.3,2.5,3,1.5,.9,3.4,1.4,4.9,1.4,3.3,.1,6.7-.6,9.5-2.5s4.7-5,4.9-8.3c.2-3.2-1.3-5.6-3.5-7.7-2.3-2.1-3-5.6-5.3-7.9-2.1-2.2-5.3-3.6-8.3-2.8-3.2,.8-5.5,4-8.8,4.3-2.2,.2-4.2-1-6.3-1.8-5.4-2-11.7-1.2-16.4,2.1-2.1,1.5-3.9,3.4-6.2,4.4-3.2,1.4-6.9,1.4-10.1,2.8-2.9,1.3-4.8,5-5.1,8-.4,3.8,1.5,6.9,3.7,9.8,2.5,3.2,4.4,6.8,6.5,10.3,2.7,4.6,6.5,10,11.9,11.4,5.7,1.5,11.9,.4,17,3.6,3.3,2.1,5.8,5.7,5.8,9.6,0,4.7-3.6,7.6-8,7.9-2.5,.2-5.1,.2-7.5-.1-2.2-.3-4.2-2.1-6.1-3.2-4.8-2.7-10-4.8-15.3-6.1-1.9-.5-3.8-.9-5.8-.6-4.9,.8-6.3,7-6.5,11.3-.3,6.9,3.8,14.4,10.6,15.8,3.8,.8,7.6-.5,11.2-1.2,2-.4,3.7,.7,5.5,1.3s3.7,1.2,5.6,1.5c3.4,.6,7,.6,10.3-.7,2.3-.9,4.4-2.5,6.9-3.1,3.2-.8,6.6,.1,9.9,.4,3,.3,7.7-.3,9.4-3.3,.9-1.6,.4-4.6,.3-6.4,0-2.4-.5-4.7-1-7-.8-3.4-2-7.2-.5-10.4,.7-1.4,1.8-2.5,2.6-3.8,2.7-4.2,.6-11.3-4.4-11.8-2.6-.2-5.3,1.3-7.8,.6-3.9-1-4.9-6.2-8.1-8.6-3.6-2.7-8.5-1.4-12.7-1.8-5.2-.4-8.1-3.9-8.9-9-.7-3.8,.4-7.1,3.9-8.6h0Zm153.9-20.3c-2.4-5.6-9.5-9.7-14.6-6.5-1.4,.9-2.1,2.3-3.4,3.4s-3,1.8-4.5,2.7c-3.1,2-6,4.4-7.6,7.8-1.5,3-1.8,6.5-3.2,9.5-1.9,3.9-5.5,6.7-8.7,9.6-2.2,1.9-4.3,4.1-5.7,6.7-1.4,2.7-.9,4.6-4.4,5-5,.6-6.1-4-6.9-8.1-2-9.7-7-18.8-14-25.8-4.8-4.8-16.2-12.1-19.6-1.7-.8,2.3,0,4.4-.4,6.6-.4,2.8-2.2,5.8-3.1,8.5-1.9,5.9-3.2,12.1-2.6,18.4,.4,4,1.6,7.9,2,12,.3,2.8,.2,5.8-.8,8.4-1.1,2.8-3.5,4.1-5.2,6.4-3.3,4.4-6.2,16.3-3.2,21.4,2.2,3.7,12.7,8.5,16.7,8,3-.4,4.3-1.7,4.3-4.4,0-3.2,0-5.4,1.5-8.4,1.3-2.7,3.1-5.2,4-8,1.5-4.6,.7-9.6,.5-14.4-.2-3.4,1.3-17.9,7.6-14.5,2,1.1,1.9,3.2,2.3,5.2,1,4.9,3,9.7,6.7,13.1,4.6,4.2,12.4,5.4,17.1,1.2,3.6-3.2,4.5-8.3,6-12.8,1.1-3.4,3.1-6.8,6.2-8.6,2.1-1.2,6.7-3.2,7.2,.8,.6,5.5-4.7,6.2-5.7,11.1-.5,2.5-.3,5-.2,7.5,0,3.8-.5,7.5-1.5,11.2-1,3.3-2.4,6.5-1.8,10,.8,4.1,4.5,7.5,8.7,7.8,2.8,.2,5.9-.1,8.6-.9,3.6-1,6.1-3.2,7.5-6,2.9-5.7,.2-8-1.5-13.1-1.5-4.4-1-9.5,.2-13.9,1.7-6.7,4.8-13.3,4.8-20.2s-.9-7.1-1.1-10.8c-.5-7,2-8.8,6.4-13,3-2.7,2.9-7.5,1.4-11.2h0Z" style="fill:url(#b);"/><path id="d" d="M289.1,84c-1.7-12.6-8.7-23.4-21.4-33.3l-7.3-4.9-4.9,7.3c-6.2,9.4-9.4,22.5-8.4,35,.5,4.4,1.9,12.3,6.4,19.2-4.5,2.4-13.4,5.8-25.3,5.6H1.2l-.4,2.6c-2.1,12.6-2.1,51.8,23.4,82,19.4,22.9,48.4,34.6,86.4,34.6,82.2,0,143-37.8,171.5-106.6,11.2,.2,35.3,.1,47.7-23.6,.3-.5,1.1-2,3.2-6.4l1.2-2.5-7-4.7c-7.5-5-24.8-6.8-38.1-4.3h0ZM182.8,0h-34.5V31.4h34.5V0Zm0,37.7h-34.5v31.3h34.5v-31.3Zm-40.8,0h-34.5v31.3h34.5v-31.3Zm-40.8,0h-34.5v31.3h34.5v-31.3Zm-40.8,37.6H25.9v31.4H60.4v-31.4Zm40.8,0h-34.5v31.4h34.5v-31.4Zm40.8,0h-34.5v31.4h34.5v-31.4Zm40.8,0h-34.5v31.4h34.5v-31.4Zm40.8,0h-34.5v31.4h34.5v-31.4Zm209.7-7c-2.5,0-4.6,.8-6.3,2.5s-2.5,3.8-2.5,6.3v42.5c-8.5-7-18.4-10.5-29.6-10.5s-24.2,4.7-33.4,14-13.8,20.5-13.8,33.7,4.6,24.4,13.8,33.7,20.3,13.9,33.4,13.9,24-4.6,33.4-13.9c9.2-9.2,13.8-20.4,13.8-33.7V77.1c0-2.6-.9-4.7-2.6-6.3-1.6-1.7-3.7-2.5-6.2-2.5h0Zm-11.1,100c-1.5,3.6-3.6,6.8-6.3,9.5s-5.8,4.9-9.4,6.5-7.4,2.4-11.5,2.4-8-.8-11.6-2.4-6.7-3.7-9.4-6.4-4.7-5.9-6.3-9.5c-1.5-3.6-2.3-7.5-2.3-11.6s.8-7.9,2.3-11.6c1.5-3.6,3.6-6.8,6.3-9.5,2.6-2.7,5.8-4.8,9.4-6.4s7.5-2.4,11.6-2.4,8,.8,11.5,2.4c3.6,1.6,6.7,3.7,9.4,6.5,2.7,2.7,4.8,5.9,6.3,9.5s2.3,7.4,2.3,11.5-.7,7.9-2.3,11.5Zm396.8-45.2c-9.3-9.3-20.5-13.9-33.4-13.9s-24.2,4.7-33.4,13.9c-9.2,9.2-13.8,20.5-13.8,33.7s4.6,24.4,13.8,33.7,20.3,13.9,33.4,13.9,22.1-3.9,30.8-11.6c1.7-1.8,2.5-3.9,2.5-6.4s-.8-4.7-2.5-6.3-3.8-2.5-6.3-2.5c-2.2,.1-4.1,.8-5.8,2.2-2.6,2.3-5.5,4-8.6,5.1s-6.5,1.7-10.2,1.7-6.4-.5-9.4-1.5-5.8-2.4-8.3-4.3c-2.5-1.8-4.7-4.1-6.5-6.6-1.8-2.6-3.3-5.4-4.2-8.6h66.7c2.5,0,4.6-.8,6.3-2.5s2.6-3.8,2.6-6.3c0-6.6-1.2-12.7-3.5-18.3-2.2-5.7-5.6-10.9-10.2-15.4h0Zm-61.8,24.8c.9-3.1,2.3-6,4.1-8.6s4-4.8,6.6-6.6c2.5-1.8,5.3-3.3,8.3-4.3s6.2-1.5,9.3-1.5,6.3,.5,9.3,1.5,5.8,2.4,8.3,4.3c2.5,1.8,4.7,4.1,6.6,6.6s3.3,5.4,4.3,8.6h-56.8Zm154.2-32.8c-1.6-1.5-3.5-2.7-5.9-3.6s-5-1.5-7.8-1.8-5.5-.5-8-.5c-5.6,0-10.9,.9-15.8,2.7s-9.5,4.4-13.7,7.8v-1.7c0-2.4-.9-4.5-2.6-6.2s-3.8-2.6-6.2-2.6-4.6,.9-6.3,2.6-2.6,3.8-2.6,6.2v77.6c0,2.4,.9,4.5,2.6,6.2s3.8,2.6,6.3,2.6,4.5-.9,6.2-2.6,2.6-3.8,2.6-6.2v-38.8c0-4.1,.8-8,2.3-11.7,1.5-3.6,3.7-6.8,6.3-9.5,2.7-2.7,5.8-4.8,9.4-6.4s7.4-2.3,11.5-2.3,8,.7,11.5,2.1c1.4,.6,2.6,.9,3.7,.9s2.4-.2,3.5-.7,2-1.1,2.8-1.9,1.4-1.8,1.9-2.9,.7-2.2,.7-3.5c0-2.3-.8-4.3-2.4-5.8h0Zm-378.7,8c-9.3-9.3-20.5-13.9-33.4-13.9s-24.2,4.7-33.4,13.9c-9.2,9.2-13.8,20.5-13.8,33.7s4.6,24.4,13.8,33.7,20.3,13.9,33.4,13.9,24-4.6,33.4-13.9c9.2-9.2,13.8-20.4,13.8-33.7,0-6.6-1.2-12.7-3.5-18.3-2.2-5.7-5.7-10.8-10.3-15.4Zm-6.1,45.2c-1.5,3.6-3.7,6.8-6.3,9.5-2.7,2.7-5.8,4.9-9.4,6.5s-7.4,2.4-11.5,2.4-8-.8-11.6-2.4-6.7-3.7-9.4-6.4-4.7-5.9-6.3-9.5c-1.5-3.6-2.3-7.5-2.3-11.6s.8-7.9,2.3-11.6c1.5-3.6,3.6-6.8,6.3-9.5,2.6-2.7,5.8-4.8,9.4-6.4s7.5-2.4,11.6-2.4,8,.8,11.5,2.4c3.6,1.6,6.7,3.7,9.4,6.5,2.7,2.7,4.8,5.9,6.3,9.5s2.3,7.4,2.3,11.5c0,4-.7,7.9-2.3,11.5Zm202.3-50.4c0-1.2-.2-2.3-.7-3.4s-1.1-2-1.9-2.8-1.7-1.5-2.8-1.9-2.2-.7-3.5-.7-3.3,.4-4.7,1.4l-50.4,33.1V77.2c0-2.5-.9-4.6-2.6-6.3s-3.8-2.6-6.2-2.6-4.6,.9-6.3,2.6-2.6,3.8-2.6,6.3v118.3c0,2.4,.9,4.5,2.6,6.3s3.8,2.6,6.3,2.6,4.5-.9,6.2-2.6,2.6-3.9,2.6-6.3v-30.7l10.3-6.8,38.9,44.2c1.6,1.5,3.5,2.3,5.9,2.3s2.4-.2,3.5-.7c1.1-.4,2-1.1,2.8-1.9s1.4-1.8,1.9-2.9,.7-2.2,.7-3.4c0-2.3-.8-4.4-2.4-6.2l-36.2-41.2,35.3-23.1c2.2-1.6,3.3-4,3.3-7.2h0Zm-146.3,17.7c2.7-2.7,5.8-4.8,9.4-6.4s7.4-2.3,11.5-2.3,7.1,.6,10.3,1.9,6.2,3.1,9,5.5c1.7,1.4,3.6,2,5.7,2s4.6-.9,6.3-2.6,2.5-3.8,2.5-6.4-1-4.9-3-6.7c-8.7-7.7-18.9-11.6-30.8-11.6s-24.2,4.7-33.4,14c-9.2,9.3-13.8,20.5-13.8,33.7s4.6,24.4,13.8,33.7,20.3,13.9,33.4,13.9,22-3.9,30.8-11.6c1.8-1.9,2.8-4.1,2.8-6.6s-.8-4.7-2.5-6.3-3.8-2.5-6.3-2.5c-2.1,.1-4,.7-5.6,1.9-2.8,2.4-5.8,4.3-8.9,5.5-3.2,1.2-6.6,1.8-10.3,1.8s-8-.8-11.5-2.3c-3.6-1.6-6.7-3.7-9.4-6.4s-4.8-5.9-6.4-9.5-2.3-7.5-2.3-11.7,.8-8,2.3-11.7c1.6-3.4,3.7-6.6,6.4-9.3h0Z" style="fill:#2f8ed7;"/></svg>