<?xml version="1.0" encoding="UTF-8"?><svg id="a" xmlns="http://www.w3.org/2000/svg" viewBox="0 0 334.2 290.7"><path d="M295.5,55c1.3-17.5-10.3-33.5-27.4-37.6C231.9,8.6,195.2,2.8,158.1,0c-17.5-1.3-33.5,10.3-37.6,27.4-8.8,36.2-14.5,72.9-17.3,110-1.3,17.5,10.3,33.5,27.4,37.6,36.2,8.8,72.9,14.5,110,17.3,17.5,1.3,33.5-10.3,37.6-27.4,8.8-36.2,14.5-72.9,17.3-110h0Zm-149.6,78.4c-2.1,1.5-4.5,2-6.8,1.7s-4.5-1.6-6-3.7c-3-4.1-2.1-9.9,2-12.9l36.5-26.6-26.6-36.5c-3-4.1-2.1-9.9,2-12.9,4.1-3,9.9-2.1,12.9,2l32,43.9c1.4,2,2,4.4,1.7,6.8s-1.7,4.6-3.7,6l-43.9,32Zm100.1,10.6l-47.4-7.4c-5-.8-8.5-5.5-7.7-10.5s5.5-8.5,10.5-7.7l47.4,7.4c5,.8,8.5,5.5,7.7,10.5-.8,5-5.5,8.5-10.5,7.7h0Z"/><path d="M289.1,142.6c-1.7-12.6-8.7-23.4-21.4-33.3l-7.3-4.9-4.9,7.3c-6.2,9.4-9.4,22.5-8.4,35,.5,4.4,1.9,12.3,6.4,19.2-4.5,2.4-13.4,5.8-25.3,5.6H1.2l-.4,2.6c-2.1,12.6-2.1,51.8,23.4,82,19.4,22.9,48.4,34.6,86.4,34.6,82.2,0,143-37.8,171.5-106.6,11.2,.2,35.3,0,47.7-23.6,.3-.5,1.1-2,3.2-6.4l1.2-2.5-7-4.7c-7.5-5-24.8-6.8-38.1-4.3h0ZM182.8,58.6h-34.5v31.4h34.5v-31.4Zm0,37.7h-34.5v31.3h34.5v-31.3Zm-40.8,0h-34.5v31.3h34.5v-31.3Zm-40.8,0h-34.5v31.3h34.5v-31.3Zm-40.8,37.6H25.9v31.4H60.4s0-31.4,0-31.4Zm40.8,0h-34.5v31.4h34.5v-31.4Zm40.8,0h-34.5v31.4h34.5v-31.4Zm40.8,0h-34.5v31.4h34.5v-31.4Zm40.8,0h-34.5v31.4h34.5v-31.4Z" style="fill:#2f8ed7;"/></svg>