<?xml version="1.0" encoding="UTF-8"?><svg id="a" xmlns="http://www.w3.org/2000/svg" viewBox="0 0 159.4 126"><path d="M152.7,86.9c-17.3,34.7-45,36.8-58.8,38.7-10.8,1.5-30.4-2.3-40.5-6.2-20.2-7.7-32.8-21.4-44.9-37.6l-7.9,4.5L0,32.3l46.8,28-11.2,6.3c7.9,14,19.7,26.2,39.1,32,13.4,4,31.4,3.7,48.3-9.4,14.5-11.2,22.9-31.2,16.4-49.8-6.8-19.5-31.6-26.5-51-30.7-21.3-4.6-43-.8-64.1,3,0,0-3.4,.7-3.6,0-.2-.6,2.7-1.5,3.1-1.7,5.2-2,10.7-3.3,16.2-4.3,26.1-4.7,54.7-10.1,80.4-.6,20.6,7.6,38.5,24.6,39.1,47.8,.2,11-1.8,24.1-6.7,33.9Z" style="fill:#1d1d1b;"/></svg>