<?xml version="1.0" encoding="UTF-8"?><svg id="a" xmlns="http://www.w3.org/2000/svg" viewBox="0 0 1092.1 758.8"><path d="M943.2,273.7c-5.7-41.1-28.4-76.6-69.5-109.2l-24.1-15.6-15.6,24.1c-19.9,31.2-31.2,73.8-26.9,114.9,1.4,14.2,5.7,39.7,21.3,62.4-14.2,8.5-44,18.4-82.3,18.4H4.3l-1.4,8.5c-7.1,41.1-7.1,168.8,76.6,268.1,63.8,75.2,157.4,113.5,282.2,113.5,268.1,0,466.6-123.4,560.2-348.9,36.9,0,114.9,0,156-76.6,1.4-1.4,4.3-7.1,9.9-21.3l4.3-8.5-22.7-15.6c-26.9-15.6-83.7-21.3-126.2-14.2h0Z" style="fill:#4690cd;"/><rect x="483.7" width="112" height="102.1" style="fill:#4690cd;"/><rect x="483.7" y="123.4" width="112" height="102.1" style="fill:#4690cd;"/><rect x="350.3" y="123.4" width="112" height="102.1" style="fill:#4690cd;"/><rect x="217" y="123.4" width="112" height="102.1" style="fill:#4690cd;"/><rect x="83.7" y="245.4" width="112" height="102.1" style="fill:#4690cd;"/><rect x="217" y="245.4" width="112" height="102.1" style="fill:#4690cd;"/><rect x="350.3" y="245.4" width="112" height="102.1" style="fill:#4690cd;"/><rect x="483.7" y="245.4" width="112" height="102.1" style="fill:#4690cd;"/><polygon points="729 245.4 615.6 245.4 615.6 347.5 727.6 347.5 727.6 245.4 729 245.4" style="fill:#4690cd;"/></svg>