<svg xmlns="http://www.w3.org/2000/svg" xmlns:xlink="http://www.w3.org/1999/xlink" viewBox="0 0 996 330" style="enable-background:new 0 0 996 330;" xml:space="preserve"><path d="M310.1,89c-1.7-12.6-8.7-23.4-21.4-33.3l-7.3-4.9l-4.9,7.3c-6.2,9.4-9.4,22.5-8.4,35c0.5,4.4,1.9,12.3,6.4,19.2c-4.5,2.4-13.4,5.8-25.3,5.6h-227l-0.4,2.6c-2.1,12.6-2.1,51.8,23.4,82c19.4,22.9,48.4,34.6,86.4,34.6c82.2,0,143-37.8,171.5-106.6c11.2,0.2,35.3,0.1,47.7-23.6c0.3-0.5,1.1-2,3.2-6.4l1.2-2.5l-7-4.7C340.7,88.3,323.4,86.5,310.1,89L310.1,89z M203.8,5h-34.5v31.4h34.5V5z M203.8,42.7h-34.5V74h34.5V42.7z M163,42.7h-34.5V74H163V42.7z M122.2,42.7H87.7V74h34.5V42.7z M81.4,80.3H46.9v31.4h34.5V80.3z M122.2,80.3H87.7v31.4h34.5V80.3z M163,80.3h-34.5v31.4H163V80.3z M203.8,80.3h-34.5v31.4h34.5V80.3z M244.6,80.3h-34.5v31.4h34.5V80.3z M454.3,73.3c-2.5,0-4.6,0.8-6.3,2.5s-2.5,3.8-2.5,6.3v42.5c-8.5-7-18.4-10.5-29.6-10.5c-13,0-24.2,4.7-33.4,14s-13.8,20.5-13.8,33.7s4.6,24.4,13.8,33.7s20.3,13.9,33.4,13.9c12.9,0,24-4.6,33.4-13.9c9.2-9.2,13.8-20.4,13.8-33.7V82.1c0-2.6-0.9-4.7-2.6-6.3C458.9,74.1,456.8,73.3,454.3,73.3L454.3,73.3z M443.2,173.3c-1.5,3.6-3.6,6.8-6.3,9.5s-5.8,4.9-9.4,6.5s-7.4,2.4-11.5,2.4c-4.2,0-8-0.8-11.6-2.4s-6.7-3.7-9.4-6.4s-4.7-5.9-6.3-9.5c-1.5-3.6-2.3-7.5-2.3-11.6s0.8-7.9,2.3-11.6c1.5-3.6,3.6-6.8,6.3-9.5c2.6-2.7,5.8-4.8,9.4-6.4s7.5-2.4,11.6-2.4s8,0.8,11.5,2.4c3.6,1.6,6.7,3.7,9.4,6.5c2.7,2.7,4.8,5.9,6.3,9.5s2.3,7.4,2.3,11.5C445.5,165.8,444.8,169.7,443.2,173.3z M840,128.1c-9.3-9.3-20.5-13.9-33.4-13.9c-13,0-24.2,4.7-33.4,13.9s-13.8,20.5-13.8,33.7s4.6,24.4,13.8,33.7s20.3,13.9,33.4,13.9c11.8,0,22.1-3.9,30.8-11.6c1.7-1.8,2.5-3.9,2.5-6.4c0-2.6-0.8-4.7-2.5-6.3s-3.8-2.5-6.3-2.5c-2.2,0.1-4.1,0.8-5.8,2.2c-2.6,2.3-5.5,4-8.6,5.1s-6.5,1.7-10.2,1.7c-3.3,0-6.4-0.5-9.4-1.5s-5.8-2.4-8.3-4.3c-2.5-1.8-4.7-4.1-6.5-6.6c-1.8-2.6-3.3-5.4-4.2-8.6h66.7c2.5,0,4.6-0.8,6.3-2.5s2.6-3.8,2.6-6.3c0-6.6-1.2-12.7-3.5-18.3C848,137.8,844.6,132.6,840,128.1L840,128.1z M778.2,152.9c0.9-3.1,2.3-6,4.1-8.6s4-4.8,6.6-6.6c2.5-1.8,5.3-3.3,8.3-4.3s6.2-1.5,9.3-1.5c3.2,0,6.3,0.5,9.3,1.5s5.8,2.4,8.3,4.3c2.5,1.8,4.7,4.1,6.6,6.6s3.3,5.4,4.3,8.6H778.2z M932.4,120.1c-1.6-1.5-3.5-2.7-5.9-3.6s-5-1.5-7.8-1.8s-5.5-0.5-8-0.5c-5.6,0-10.9,0.9-15.8,2.7s-9.5,4.4-13.7,7.8V123c0-2.4-0.9-4.5-2.6-6.2s-3.8-2.6-6.2-2.6c-2.5,0-4.6,0.9-6.3,2.6s-2.6,3.8-2.6,6.2v77.6c0,2.4,0.9,4.5,2.6,6.2s3.8,2.6,6.3,2.6c2.4,0,4.5-0.9,6.2-2.6s2.6-3.8,2.6-6.2v-38.8c0-4.1,0.8-8,2.3-11.7c1.5-3.6,3.7-6.8,6.3-9.5c2.7-2.7,5.8-4.8,9.4-6.4s7.4-2.3,11.5-2.3c4.2,0,8,0.7,11.5,2.1c1.4,0.6,2.6,0.9,3.7,0.9c1.2,0,2.4-0.2,3.5-0.7s2-1.1,2.8-1.9s1.4-1.8,1.9-2.9s0.7-2.2,0.7-3.5C934.8,123.6,934,121.6,932.4,120.1L932.4,120.1z M553.7,128.1c-9.3-9.3-20.5-13.9-33.4-13.9c-13,0-24.2,4.7-33.4,13.9s-13.8,20.5-13.8,33.7s4.6,24.4,13.8,33.7s20.3,13.9,33.4,13.9c12.9,0,24-4.6,33.4-13.9c9.2-9.2,13.8-20.4,13.8-33.7c-0.1-6.6-1.2-12.7-3.5-18.3C561.8,137.8,558.3,132.7,553.7,128.1z M547.6,173.3c-1.5,3.6-3.7,6.8-6.3,9.5c-2.7,2.7-5.8,4.9-9.4,6.5s-7.4,2.4-11.5,2.4c-4.2,0-8-0.8-11.6-2.4s-6.7-3.7-9.4-6.4s-4.7-5.9-6.3-9.5c-1.5-3.6-2.3-7.5-2.3-11.6s0.8-7.9,2.3-11.6c1.5-3.6,3.6-6.8,6.3-9.5c2.6-2.7,5.8-4.8,9.4-6.4s7.5-2.4,11.6-2.4s8,0.8,11.5,2.4c3.6,1.6,6.7,3.7,9.4,6.5c2.7,2.7,4.8,5.9,6.3,9.5s2.3,7.4,2.3,11.5C549.9,165.8,549.2,169.7,547.6,173.3z M749.9,122.9c0-1.2-0.2-2.3-0.7-3.4s-1.1-2-1.9-2.8s-1.7-1.5-2.8-1.9s-2.2-0.7-3.5-0.7c-1.7,0-3.3,0.4-4.7,1.4l-50.4,33.1V82.2c0-2.5-0.9-4.6-2.6-6.3s-3.8-2.6-6.2-2.6c-2.5,0-4.6,0.9-6.3,2.6s-2.6,3.8-2.6,6.3v118.3c0,2.4,0.9,4.5,2.6,6.3s3.8,2.6,6.3,2.6c2.4,0,4.5-0.9,6.2-2.6s2.6-3.9,2.6-6.3v-30.7l10.3-6.8l38.9,44.2c1.6,1.5,3.5,2.3,5.9,2.3c1.2,0,2.4-0.2,3.5-0.7c1.1-0.4,2-1.1,2.8-1.9s1.4-1.8,1.9-2.9s0.7-2.2,0.7-3.4c0-2.3-0.8-4.4-2.4-6.2l-36.2-41.2l35.3-23.1C748.8,128.5,749.9,126.1,749.9,122.9L749.9,122.9z M603.6,140.6c2.7-2.7,5.8-4.8,9.4-6.4s7.4-2.3,11.5-2.3c3.7,0,7.1,0.6,10.3,1.9s6.2,3.1,9,5.5c1.7,1.4,3.6,2,5.7,2c2.5,0,4.6-0.9,6.3-2.6s2.5-3.8,2.5-6.4c0-2.7-1-4.9-3-6.7c-8.7-7.7-18.9-11.6-30.8-11.6c-13,0-24.2,4.7-33.4,14s-13.8,20.5-13.8,33.7s4.6,24.4,13.8,33.7s20.3,13.9,33.4,13.9c11.8,0,22-3.9,30.8-11.6c1.8-1.9,2.8-4.1,2.8-6.6c0-2.6-0.8-4.7-2.5-6.3s-3.8-2.5-6.3-2.5c-2.1,0.1-4,0.7-5.6,1.9c-2.8,2.4-5.8,4.3-8.9,5.5c-3.2,1.2-6.6,1.8-10.3,1.8c-4.1,0-8-0.8-11.5-2.3c-3.6-1.6-6.7-3.7-9.4-6.4s-4.8-5.9-6.4-9.5s-2.3-7.5-2.3-11.7s0.8-8,2.3-11.7C598.8,146.5,600.9,143.3,603.6,140.6L603.6,140.6z"></path><a class="sub-logo" href="https://docs.docker.com/desktop/wasm/" id="dkr_logo_wasm20221024_link" target="_blank"><path class="logo-helper" d="M499.9,206.1H996V330H499.9V206.1z"></path><path fill="#FF72DE" d="M567.3,265.1c-2.5-0.5-5,0.3-7.5,0.8c-3.4,0.8-5.3,1.3-5.7-2.5c-0.3-3,0.4-6.2,0.7-9.1s1.2-8.4-0.8-11 c-1.9-2.5-5.1-0.1-7.9,0.2c-4.3,0.4-10.5-3.1-12.4,2.8c-1.1,3.3,0.1,6.8-0.3,10.2c-0.1,0.6-0.2,1.4-0.3,2.1 c-0.4,2.2-1.1,4.7-1.8,6.5c-1.3,3-3.6,2-6.6,1.9c-3.7-0.1-7.4,0-11.1,0.5c-4,0.5-7,0.7-7.1,5.3c-0.1,2.5-0.1,4.9-0.1,7.4 c0,1.8-0.7,5.5,0.2,7.1c1.3,2.3,4.9,1,6.8,0.6c3.3-0.7,6.7-0.9,10.1-0.5c2.8,0.3,5.9,1.8,6.7,4.5c0.8,2.8-0.9,5.6-1.9,8.3 c-0.8,2.2-2.3,6.8-0.9,9c1.2,2,3.7,1.5,5.8,1.6c3.7,0.2,10.4,1.7,13.3-1.5c2.5-2.7,2.3-8.3,2.3-11.7c0-2-0.3-3.9-0.4-5.8 c-0.1-4.6,2.7-7.5,7.6-6.5c3.5,0.8,11.8,1.7,14.6-1.4c1.2-1.3,1.2-3.9,1.8-5.5c0.8-2.3,2-4.5,1.8-7 C573.9,268.2,570.1,265.7,567.3,265.1L567.3,265.1z M694.5,262.1c1.9-4,4.2-7.8,6.8-11.4c1.7-2.3,3.5-4.6,3.9-7.4 c0.5-3.8-1.9-8.1,0.3-11.2c1.1-1.6,3.7-2.9,3.3-5.1c-0.3-1.8-2.6-3.2-4.2-3.4c-1.7-0.2-3.4,0.4-5.1,0.9c-3.7,1.2-7.4,2.1-11.2,2.6 c-3.5,0.4-6.2-0.1-7.6,3.8c-0.9,2.6-0.5,5.5,0,8.2s0.8,5.6-0.2,8.2s-3.3,4.6-4.9,6.9c-1.8,2.6-2.6,5.8-2.4,8.9 c0.3,4.5,2.1,8.5,2.1,13s-1.1,9-3.2,13c-0.3,0.6-0.7,1.3-1.3,1.8c-1.1,0.9-2.8,0.9-4.2,0.9c-1.8-0.1-3.8-0.2-4.9-1.7 c-2.3-3-1.7-9.7-0.1-12.8c0.8-1.5,1.9-2.8,2.7-4.3c2-4,1-8.7-0.5-12.9c-1.4-4.2-3.2-8.5-2.6-12.8c0.3-2.6,1.4-5,2.2-7.4 c1.7-5.2-0.2-10-6.2-10.8c-2.8-0.4-5.7,0.4-8.4,1.4c-7.7,2.8-14,6-15.5,14.9c-0.7,4-0.4,8.1-0.7,12.2c-0.4,5.4-1.7,10.6-3.9,15.5 c-2.3,5.1-5.7,9.1-7.3,14.5c-0.6,2-2.6,5-5.1,4.1c-2.2-0.8-2-3.7-1.9-5.6c0.3-6.6,2.9-12.8,3.4-19.4c0.4-5.1-0.5-10.3-0.9-15.4 c-0.2-3.5-0.2-7.1,0.6-10.6c0.5-2,2-3.8,1.4-6c-0.5-1.9-3-4.1-4.7-4.8c-2.1-0.9-4.4-1-6.6-1.2c-6.1-0.4-18.4-3.8-18.9,5.8 c-0.5,8.5,7.1,13.3,7.5,21.2c0.3,6.1-5.1,11-6.5,16.9c-1.6,6.5,1.8,12.9,3.4,19.1c0.8,3.3,0.9,6,0.3,9.3s0.6,5.7,2.1,8.8 c1.3,2.7,2.7,5.5,5.2,7.1c3,2,7,1.8,10.6,1.4c4.4-0.5,9-1.2,12.5-3.8l4.4-3.5c9.7-8.8,10.4-15.9,9.2-23c-0.6-3.5-1.6-7.2-0.5-10.6 c0.5-1.7,1.6-3.2,2.6-4.6c2.5-3.6,5-7.3,7.5-10.9c3.1,5.8,3.7,12.8,3,19.4s-2.6,13-4.1,19.4c-0.8,3.3-1.5,6.7-0.2,10 c0.3,0.7,0.6,1.4,1.1,1.9c5.3,6.7,17-1.9,22.5-4.4c2.7-1.2,5.9-2.4,8.4-0.9c0.8,0.5,1.5,1.3,2.3,1.7c1.8,0.9,4.9,0.4,6.1-1.1 c2.8-3.5,3.5-8.3,3.5-12.8s-0.9-9-0.7-13.5C689.2,274.7,691.5,268.2,694.5,262.1L694.5,262.1z M774,302c-0.7-1.2-1.9-2.3-2.5-3.6 s-0.8-2.8-0.8-4.3c-0.1-5.7,2.3-11.2,2-16.9c-0.4-7-4.8-13.8-3.2-20.6c0.7-2.8,2.4-5.3,3.7-7.9s2.1-5.7,1.1-8.4s-3.8-4.6-4.2-7.4 c-0.4-2.5,1.1-4.8,1.4-7.3c0.4-2.7-1-5.9-3.6-6.6c-1.4-0.4-3-0.1-4.4,0.3c-5.5,1.3-11.3,2.9-15,7.1c-0.5,0.5-0.9,1.1-1.5,1.6 c-2.2,1.6-5.2,0.1-7.4-1.6s-4.6-3.7-7.2-3.1c-3.9,0.9-4.1,5.3-4,8.4c0.2,4.9,0.2,9-1.8,13.7c-2.2,5-5.4,9.5-8.1,14.2 c-2.6,4.5-4.7,9.2-6.8,13.9c-2.4,5.4-4.2,10.5-5.1,16.4c-1,6.3-5.8,3.7-8.8,8.5c-2.5,4.1,2.7,11.9,6.8,12.9 c1.8,0.5,3.8,0.2,5.6-0.1s3.8-0.6,5.6-0.3c1.4,0.2,2.8,0.8,4.2,1.2c3.5,0.9,6.5-0.6,6.2-4.6c-0.2-1.9-1-3.6-1.7-5.4 s-1.2-3.8-0.5-5.6c1-3,4.8-4.3,8-4.2c4.2,0,8.4,1.4,11.5,4.3c3.3,3.1,3.6,6.2,4.3,10.3c0.6,3.9,2.4,4.6,6.8,5.1 c3.6,0.4,7.2-0.1,10.8-0.3c2.5-0.1,8.6,1.7,10.6-0.4c1.8-2-0.6-6.2-1.3-8.4C774.3,302.6,774.2,302.3,774,302L774,302z M751.2,269.4 c-0.3,0.6-0.7,1.1-1.1,1.5c-2.3,2.8-5.4,4.2-8.4,6.2c-2.1,1.4-5.2,0.3-6.3-1.9c-0.7-1.4-0.7-3-0.4-4.5c0.2-1.5,0.7-3,1-4.5 c0.4-2.6,0.1-5.3,0.6-7.9c0.5-2.4,1.5-4.6,2.6-6.8c1.5-3,3-6.2,5.6-8.4c3.3-2.9,7.1,0.6,7.4,4.1c0.1,1.5-0.2,3.1-0.1,4.6 c0.1,2.3,0.9,4.4,1.3,6.7C753.9,262.3,753.2,266.2,751.2,269.4L751.2,269.4z M818.9,236.9c3.5-1.6,6.7-0.4,10.2-0.5 c2.2-0.1,4.8-2.1,6.9-0.6c1.2,0.9,1.8,2.4,2,3.9s0.2,3,0.6,4.4c0.4,1.3,1.3,2.3,2.5,3c1.5,0.9,3.4,1.4,4.9,1.4 c3.3,0.1,6.7-0.6,9.5-2.5s4.7-5,4.9-8.3c0.2-3.2-1.3-5.6-3.5-7.7c-2.3-2.1-3-5.6-5.3-7.9c-2.1-2.2-5.3-3.6-8.3-2.8 c-3.2,0.8-5.5,4-8.8,4.3c-2.2,0.2-4.2-1-6.3-1.8c-5.4-2-11.7-1.2-16.4,2.1c-2.1,1.5-3.9,3.4-6.2,4.4c-3.2,1.4-6.9,1.4-10.1,2.8 c-2.9,1.3-4.8,5-5.1,8c-0.4,3.8,1.5,6.9,3.7,9.8c2.5,3.2,4.4,6.8,6.5,10.3c2.7,4.6,6.5,10,11.9,11.4c5.7,1.5,11.9,0.4,17,3.6 c3.3,2.1,5.8,5.7,5.8,9.6c-0.1,4.7-3.6,7.6-8,7.9c-2.5,0.2-5.1,0.2-7.5-0.1c-2.2-0.3-4.2-2.1-6.1-3.2c-4.8-2.7-10-4.8-15.3-6.1 c-1.9-0.5-3.8-0.9-5.8-0.6c-4.9,0.8-6.3,7-6.5,11.3c-0.3,6.9,3.8,14.4,10.6,15.8c3.8,0.8,7.6-0.5,11.2-1.2c2-0.4,3.7,0.7,5.5,1.3 s3.7,1.2,5.6,1.5c3.4,0.6,7,0.6,10.3-0.7c2.3-0.9,4.4-2.5,6.9-3.1c3.2-0.8,6.6,0.1,9.9,0.4c3,0.3,7.7-0.3,9.4-3.3 c0.9-1.6,0.4-4.6,0.3-6.4c-0.1-2.4-0.5-4.7-1-7c-0.8-3.4-2-7.2-0.5-10.4c0.7-1.4,1.8-2.5,2.6-3.8c2.7-4.2,0.6-11.3-4.4-11.8 c-2.6-0.2-5.3,1.3-7.8,0.6c-3.9-1-4.9-6.2-8.1-8.6c-3.6-2.7-8.5-1.4-12.7-1.8c-5.2-0.4-8.1-3.9-8.9-9 C814.3,241.7,815.4,238.4,818.9,236.9L818.9,236.9z M972.8,216.6c-2.4-5.6-9.5-9.7-14.6-6.5c-1.4,0.9-2.1,2.3-3.4,3.4 s-3,1.8-4.5,2.7c-3.1,2-6,4.4-7.6,7.8c-1.5,3-1.8,6.5-3.2,9.5c-1.9,3.9-5.5,6.7-8.7,9.6c-2.2,1.9-4.3,4.1-5.7,6.7 c-1.4,2.7-0.9,4.6-4.4,5c-5,0.6-6.1-4-6.9-8.1c-2-9.7-7-18.8-14-25.8c-4.8-4.8-16.2-12.1-19.6-1.7c-0.8,2.3-0.1,4.4-0.4,6.6 c-0.4,2.8-2.2,5.8-3.1,8.5c-1.9,5.9-3.2,12.1-2.6,18.4c0.4,4,1.6,7.9,2,12c0.3,2.8,0.2,5.8-0.8,8.4c-1.1,2.8-3.5,4.1-5.2,6.4 c-3.3,4.4-6.2,16.3-3.2,21.4c2.2,3.7,12.7,8.5,16.7,8c3-0.4,4.3-1.7,4.3-4.4c0.1-3.2-0.1-5.4,1.5-8.4c1.3-2.7,3.1-5.2,4-8 c1.5-4.6,0.7-9.6,0.5-14.4c-0.2-3.4,1.3-17.9,7.6-14.5c2,1.1,1.9,3.2,2.3,5.2c1,4.9,3,9.7,6.7,13.1c4.6,4.2,12.4,5.4,17.1,1.2 c3.6-3.2,4.5-8.3,6-12.8c1.1-3.4,3.1-6.8,6.2-8.6c2.1-1.2,6.7-3.2,7.2,0.8c0.6,5.5-4.7,6.2-5.7,11.1c-0.5,2.5-0.3,5-0.2,7.5 c0,3.8-0.5,7.5-1.5,11.2c-1,3.3-2.4,6.5-1.8,10c0.8,4.1,4.5,7.5,8.7,7.8c2.8,0.2,5.9-0.1,8.6-0.9c3.6-1,6.1-3.2,7.5-6 c2.9-5.7,0.2-8-1.5-13.1c-1.5-4.4-1-9.5,0.2-13.9c1.7-6.7,4.8-13.3,4.8-20.2c0-3.6-0.9-7.1-1.1-10.8c-0.5-7,2-8.8,6.4-13 C974.4,225.1,974.3,220.3,972.8,216.6L972.8,216.6z"></path></a></svg>