<?xml version="1.0" encoding="UTF-8"?><svg id="a" xmlns="http://www.w3.org/2000/svg" viewBox="0 0 364.8 375.5"><path d="M364.6,85c.1,.5,.2,1,.2,1.5v80.6c0,2.1-1.1,4.1-3,5.1l-67.7,39v77.2c0,2.1-1.1,4-2.9,5.1l-141.2,81.3c-.3,.2-.7,.3-1,.4-.1,0-.3,.1-.4,.2-1,.3-2,.3-3,0-.2,0-.3-.1-.5-.2-.3-.1-.7-.2-1-.4L3,293.4c-1.8-1-3-3-3-5.1V46.5c0-.5,0-1,.2-1.5,0-.2,.1-.3,.2-.5,.1-.3,.2-.6,.4-.9,.1-.2,.3-.3,.4-.5,.2-.2,.3-.5,.5-.7,.2-.2,.4-.3,.6-.4,.2-.2,.4-.4,.6-.5h0L73.5,.8c1.8-1,4.1-1,5.9,0l70.6,40.6h0c.2,.1,.4,.3,.6,.5,.2,.1,.4,.3,.6,.4,.2,.2,.4,.5,.5,.7,.1,.2,.3,.3,.4,.5,.2,.3,.3,.6,.4,.9,0,.2,.2,.3,.2,.5,.1,.5,.2,1,.2,1.5V197.6l58.8-33.9V86.5c0-.5,0-1,.2-1.5,0-.2,.1-.3,.2-.5,.1-.3,.2-.6,.4-.9,.1-.2,.3-.3,.4-.5,.2-.2,.3-.5,.5-.7,.2-.2,.4-.3,.6-.4,.2-.2,.4-.4,.6-.5h0l70.6-40.6c1.8-1,4.1-1,5.9,0l70.6,40.6c.2,.1,.4,.3,.7,.5,.2,.1,.4,.3,.6,.4,.2,.2,.4,.5,.5,.7,.1,.2,.3,.3,.4,.5,.2,.3,.3,.6,.4,.9,0,.2,.2,.3,.2,.5Zm-11.6,78.7V96.7l-24.7,14.2-34.1,19.7v67l58.8-33.9h0Zm-70.6,121.3v-67.1l-33.6,19.2-95.9,54.7v67.7l129.4-74.5ZM11.8,56.7v228.2l129.4,74.5v-67.7l-67.6-38.3h0s0,0,0,0c-.2-.1-.4-.3-.6-.5-.2-.1-.4-.3-.6-.4h0c-.2-.2-.3-.4-.5-.6-.1-.2-.3-.4-.4-.6h0c-.1-.2-.2-.5-.3-.8,0-.2-.2-.4-.3-.7h0c0-.3,0-.6-.1-.9,0-.2,0-.4,0-.7h0V90.6l-34.1-19.7-24.7-14.2h0ZM76.5,12.7L17.7,46.5l58.8,33.9,58.8-33.9L76.5,12.7h0Zm30.6,211.3l34.1-19.6V56.7l-24.7,14.2-34.1,19.7V238.2s24.7-14.2,24.7-14.2ZM288.3,52.6l-58.8,33.9,58.8,33.9,58.8-33.9-58.8-33.9Zm-5.9,77.9l-34.1-19.7-24.7-14.2v67l34.1,19.6,24.7,14.2v-67Zm-135.3,151l86.3-49.2,43.1-24.6-58.8-33.8-67.7,39-61.7,35.5,58.7,33.2Z" style="fill:#ee372c; fill-rule:evenodd;"/></svg>