<?xml version="1.0" encoding="UTF-8"?><svg id="a" xmlns="http://www.w3.org/2000/svg" viewBox="0 0 27.4 28.3"><path d="M20.5,20.5c.2-1.5,.1-1.7,1.3-1.5h.3c.8,0,2-.2,2.6-.4,1.4-.6,2.3-1.7,.8-1.5-3.2,.6-3.4-.4-3.4-.4,3.4-5,4.8-11.3,3.6-12.9C22.3-.3,16.6,1.7,16.5,1.7h0c-.6-.1-1.3-.2-2.1-.2-1.4,0-2.5,.4-3.4,1C10.9,2.5,.7-1.7,1.2,7.8c.1,2,2.9,15.3,6.3,11.3,1.2-1.5,2.4-2.7,2.4-2.7,.6,.4,1.3,.6,2,.5h0v.5c-.8,.9-.6,1.1-2.3,1.5-1.7,.4-.7,1,0,1.2,.8,.2,2.7,.5,3.9-1.3v.2c.3,.3,.3,1.9,.3,3.2s.1,2.3,.4,2.9c.3,.6,.5,2.4,2.8,1.8,1.9-.5,3.3-1.1,3.5-6.5" style="stroke:#000; stroke-width:2.4px;"/><path d="M25.5,17.2c-3.2,.6-3.4-.4-3.4-.4,3.4-5,4.8-11.3,3.6-12.9C22.3-.3,16.6,1.7,16.5,1.7h0c-.6-.1-1.3-.2-2.1-.2-1.4,0-2.5,.4-3.4,1C10.9,2.5,.7-1.7,1.2,7.8c.1,2,2.9,15.3,6.3,11.3,1.2-1.5,2.4-2.7,2.4-2.7,.6,.4,1.3,.6,2,.5h0v.5c-.8,.9-.6,1.1-2.3,1.5-1.7,.4-.7,1,0,1.2,.8,.2,2.7,.5,3.9-1.3v.2c.3,.3,.5,1.7,.5,3.1,0,1.4,0,2.3,.2,3s.5,2.4,2.8,1.8c1.9-.4,2.8-1.5,3-3.2,.1-1.3,.3-1.1,.3-2.2l.2-.5c.2-1.7,0-2.2,1.2-2h.3c.8,0,2-.2,2.6-.4,1.5-.7,2.3-1.8,.9-1.5h0Z" style="fill:#346891;"/><path d="M13.6,18.1c-.1,3.2,0,6.3,.3,7,.3,.8,.9,2.3,3.2,1.8,1.9-.4,2.6-1.2,2.9-2.9,.2-1.3,.6-4.8,.7-5.5" style="fill:none; stroke:#fff; stroke-linecap:round; stroke-linejoin:round; stroke-width:.8px;"/><path d="M10.9,2.4S.7-1.8,1.2,7.7c.1,2,2.9,15.3,6.3,11.3,1.2-1.5,2.3-2.6,2.3-2.6" style="fill:none; stroke:#fff; stroke-linecap:round; stroke-linejoin:round; stroke-width:.8px;"/><path d="M16.5,1.7c-.4,.1,5.7-2.2,9.1,2.2,1.2,1.5-.2,7.9-3.6,12.9" style="fill:none; stroke:#fff; stroke-linecap:round; stroke-linejoin:round; stroke-width:.8px;"/><path d="M22,16.7s.2,1.1,3.4,.4c1.4-.3,.6,.8-.8,1.5-1.2,.5-3.8,.7-3.8,0-.2-1.9,1.3-1.4,1.2-1.8-.1-.4-.7-.8-1.2-1.9-.4-.9-5.3-8,1.4-7,.3,0-1.7-6.3-7.9-6.4-6.2-.1-5.9,7.6-5.9,7.6" style="fill:none; stroke:#fff; stroke-linecap:round; stroke-linejoin:bevel; stroke-width:.8px;"/><path d="M11.9,17.4c-.8,.9-.6,1.1-2.3,1.5-1.7,.4-.7,1,0,1.2,.8,.2,2.7,.5,3.9-1.3,.4-.5,0-1.4-.5-1.6-.3-.1-.6-.3-1.1,.3h0Z" style="fill:none; stroke:#fff; stroke-linecap:round; stroke-linejoin:round; stroke-width:.8px;"/><path d="M11.9,17.3c-.1-.6,.2-1.3,.5-2,.4-1.2,1.5-2.4,.6-6.1-.6-2.8-4.6-.6-4.6-.2s.2,1.9,0,3.7c-.3,2.3,1.5,4.3,3.6,4.1" style="fill:none; stroke:#fff; stroke-linecap:round; stroke-linejoin:round; stroke-width:.8px;"/><path d="M10.9,9c0,.1,.2,.5,.6,.5,.3,0,.6-.2,.6-.4s-.2-.3-.6-.3c-.3,0-.6,0-.6,.2h0Z" style="fill:#fff; stroke:#fff; stroke-width:.3px;"/><path d="M21,8.7c0,.1-.2,.5-.6,.5-.3,0-.6-.2-.6-.4s.3-.3,.6-.3c.3,0,.6,0,.6,.2h0Z" style="fill:#fff; stroke:#fff; stroke-width:.1px;"/><path d="M22.2,7.8c0,1-.2,1.7-.3,2.8,0,1.6,.7,3.4-.5,5.2" style="fill:none; stroke:#fff; stroke-linecap:round; stroke-linejoin:round; stroke-width:.8px;"/></svg>