<?xml version="1.0" encoding="UTF-8"?><svg xmlns="http://www.w3.org/2000/svg" xmlns:xlink="http://www.w3.org/1999/xlink" viewBox="0 0 440.9 332.7"><defs><clipPath id="e"><polygon points="273.3 65.4 266 69.7 270 70.7 268.7 93.1 249.6 104 249.6 59.1 275.6 44.2 275.6 64.1 273.3 65.4" style="fill:none;"/></clipPath><filter id="f" filterUnits="userSpaceOnUse"><feOffset dx="1" dy="1"/><feGaussianBlur result="g" stdDeviation="1"/><feFlood flood-color="#f86305" flood-opacity=".5"/><feComposite in2="g" operator="in"/><feComposite in="SourceGraphic"/></filter><filter id="ay" filterUnits="userSpaceOnUse"><feOffset dx="1" dy="1"/><feGaussianBlur result="az" stdDeviation="1"/><feFlood flood-color="#4c2b00" flood-opacity=".5"/><feComposite in2="az" operator="in"/><feComposite in="SourceGraphic"/></filter></defs><g style="isolation:isolate;"><g id="a"><g><path d="M82.3,296.4c82,48.4,215,48.4,297,0,82-48.4,82-126.9,0-175.4-82-48.4-215-48.4-297,0-82,48.4-82,126.9,0,175.4Z" style="fill:#fafafa;"/><g><g><g><path d="M403,117.5c.5-5.6,4.8-15.2,11.2-22,6.4-6.8,16.7-10.1,23-7.4,5.9,2.6,4.6,10.5-3.2,15.1-7.8,4.7-19.4,10.4-23.3,19.3l-7.7,10.6v-15.6Z" style="fill:#f86305;"/><path d="M403,117.5c.5-5.6,4.8-15.2,11.2-22,6.4-6.8,16.7-10.1,23-7.4,5.9,2.6,4.6,10.5-3.2,15.1-7.8,4.7-19.4,10.4-23.3,19.3l-7.7,10.6v-15.6Z" style="fill:#f86305; opacity:.2;"/></g><path d="M434.7,90.7c-7.4,1.4-28.9,15.3-31.7,36.2" style="fill:#f86305; stroke:#fff; stroke-linecap:round; stroke-miterlimit:10;"/></g><g><path d="M403.9,142.8c1.2-3.1,6.1-8.6,13.2-11.3,7.1-2.7,12.4-5.2,15-9.6,2.5-4.4-1.9-8.7-9.1-8.4-7.2,.3-19.1,7.8-19.9,19.7l.8,9.6Z" style="fill:#f86305;"/><path d="M426.6,117c-6.2,.6-21.2,9.7-23.2,19.9" style="fill:#f86305; stroke:#fff; stroke-linecap:round; stroke-miterlimit:10;"/></g></g><g><path d="M34.5,171.3s0-10.6-5.2-23.1c-5.3-12.5-15.9-19.1-21.6-20-5.7-.9-11.6,6-4.3,14.2,7.2,8.2,21.1,19.2,25.1,35.8l6.5,11.3-.4-18.2Z" style="fill:#f86305;"/><path d="M34.5,171.3s0-10.6-5.2-23.1c-5.3-12.5-15.9-19.1-21.6-20-5.7-.9-11.6,6-4.3,14.2,7.2,8.2,21.1,19.2,25.1,35.8l6.5,11.3-.4-18.2Z" style="fill:#f86305; opacity:.2;"/><path d="M7.7,132c11.7,6.9,25.2,25.1,27.1,49.3" style="fill:#f86305; stroke:#fff; stroke-linecap:round; stroke-linejoin:round;"/></g><g><path d="M33.6,201.2c-1.6-6.4-5.8-12.7-14.2-19.1-8.4-6.3-19.6-11.7-18.7-18.2s9.4-6,15.7-3.2c6.2,2.9,17.1,14.6,18.6,28.8l-1.3,11.6Z" style="fill:#f86305;"/><path d="M6.5,161.9c8.1,2,25.5,17.9,27.9,31.4" style="fill:#f86305; stroke:#fff; stroke-linecap:round; stroke-linejoin:round;"/></g><g><path d="M35.9,205.1c-1.3-.7-2.3-2.5-2.3-4V56.8c0-1.5,1-3.3,2.3-4l51.6-29.8c1.3-.7,3.3-.8,4.5,0s2.2,2.4,2.2,3.9v9.6c0,1.5,1,2.1,2.3,1.3L160.9,.6c1.3-.7,3.3-.8,4.5,0,1.2,.7,2.2,2.4,2.2,3.9V226.3l-47.5,27.4-84.1-48.6Z" style="fill:#263238;"/><path d="M165.4,.5c-1.2-.7-3.2-.7-4.5,0L96.4,37.8c-1.3,.7-2.3,.1-2.3-1.3v-9.6c0-1.5-1-3.2-2.2-3.9-1.2-.7-3.2-.7-4.5,0l-51.6,29.8c-.6,.4-1.2,1-1.6,1.7l29.6,17.1L167.6,11.7V4.4c0-1.5-1-3.2-2.2-3.9Z" style="fill:#455a64;"/><path d="M165.2,3.1L96.4,42.8c-1.3,.7-2.3,.1-2.3-1.3v-14.6c0-1.5-1-2.1-2.3-1.3l-51.6,29.8c-1.3,.7-2.3,2.5-2.3,4V198.7c0,1.5,1,3.3,2.3,4l84.1,48.6,43.2-24.9V4.4c0-1.5-1-2.1-2.3-1.3Z" style="fill:#37474f;"/><path d="M38.6,200.9c.4,.7,1,1.4,1.6,1.7l84.1,48.6,43.2-24.9V126.5L38.6,200.9Z" style="fill:#263238;"/></g><g><path d="M49,232.7l-.6-.4c-1-.6-1.8-2-1.8-3.2V93.7c0-1.2,.8-2.6,1.8-3.2L187.3,10.3c1-.6,2.7-.6,3.7,0l.6,.4c1,.6,1.8,2,1.8,3.2V149.3c0,1.2-.8,2.6-1.8,3.2L52.7,232.7c-1,.6-2.7,.6-3.7,0Z" style="fill:#f5f5f5;"/><path d="M55.2,96.5l-8.1-4.7c-.3,.6-.5,1.2-.5,1.8V229.1c0,1.2,.8,2.6,1.8,3.2l.6,.4c1,.6,2.7,.6,3.7,0l2.5-1.4V96.5Z" style="fill:#e0e0e0;"/><path d="M50.9,231.6V96.2c0-1.2,.8-2.6,1.8-3.2L191.6,12.8c1-.6,1.8-.1,1.8,1.1V149.3c0,1.2-.8,2.6-1.8,3.2L52.7,232.7c-1,.6-1.8,.1-1.8-1.1Z" style="fill:#ebebeb;"/><path d="M61.8,97.7L182.5,28c1.3-.7,2.3-.1,2.3,1.3v104.4c0,1.5-1,3.3-2.3,4L61.8,207.5c-1.3,.7-2.3,.1-2.3-1.3V101.7c0-1.5,1-3.3,2.3-4Z" style="fill:#fff;"/><g><path d="M128.4,171.2c.6-8.2,.3-9.1,4-9.9l.9-.5c2.4-1.2,5.9-4.1,7.7-6,4-5.1,6.6-11.9,2.3-8.8-9.4,7.7-10,2.9-10,2.9,10-30.1,14-63.3,10.6-70.2-10-18-27.9-2.4-28.2-2.3h0c-2,0-4.3,.2-7,1-4.8,1.4-8.7,4.8-11.9,9.1-.4,.1-40.6-13.7-38.4,44.3,.4,12.1,12.1,87.3,25.4,56.3,4.5-11,9-20.1,9-20.1,2.2,1.2,4.7,1.1,7.2-.7h0v2.8c-2.9,6.5-2.1,7.3-8.3,12.7-6.4,5.6-2.6,7.1,0,6.9,2.9-.4,9.7-2.4,13.9-14.6v1.1c1,1.1,1,10,1,17.1s.3,12.5,1.4,15.2c1,2.7,1.7,12.1,9.4,4.1,6.1-6.5,10.5-12.3,11.1-41" style="stroke:#000; stroke-width:20px;"/><path d="M143.3,146.5c-9.4,7.8-10,2.9-10,2.9,10-30.1,14-63.3,10.6-70.2-10-18.5-27.9-2.9-28.2-2.8h0c-2,0-4.3,.2-7,1-4.8,1.4-8.7,4.8-11.9,9.1-.4,.1-40.6-13.7-38.4,44.3,.4,12.1,12.1,87.3,25.4,56.3,4.5-11,9-20.1,9-20.1,2.2,1.2,4.7,1.1,7.2-.7h0v2.8c-2.9,6.5-2.1,7.3-8.3,12.7-6.4,5.6-2.6,7.1,0,6.9,2.9-.4,9.7-2.4,13.9-14.6v1.1c1,1.1,1.7,8.5,1.7,16.2s0,12.7,.7,16.1c.7,3.4,1.7,12.1,9.4,4.1,6.1-5.9,8.9-13.5,9.6-22.8,.3-7,.9-6.3,.9-12.1l.6-3c.6-9.2,0-11.5,3.7-12.4l.9-.5c2.4-1.2,6-4.1,7.7-6,4.3-5.7,6.6-12.4,2.6-8.9h0v.5Z" style="fill:#49688d;"/><path d="M105.8,170.1c-.3,17.9,0,34.9,1,38.1,1,3.8,3.1,10.8,10.7,3.3,6.1-5.9,8.3-11.5,9.2-21,.6-7.2,1.9-26.2,2.2-30" style="fill:none; stroke:#fff; stroke-linecap:round; stroke-linejoin:round; stroke-width:6.7px;"/><path d="M96.3,86.1s-40.2-13.8-38.1,44.1c.4,12.1,12.1,87.3,25.4,56.4,4.5-11,8.6-19.3,8.6-19.3" style="fill:none; stroke:#fff; stroke-linecap:round; stroke-linejoin:round; stroke-width:6.7px;"/><path d="M115.6,76.4c-1.3,.9,18-16.6,27.9,2.9,3.4,6.4-.6,40.1-10.6,70.2" style="fill:none; stroke:#fff; stroke-linecap:round; stroke-linejoin:round; stroke-width:6.7px;"/><path d="M133,149.1s.6,5.4,10-2.9c4-3.5,1.7,3.2-2.3,8.8-3.5,4.4-11.4,9.5-11.4,5.8-.6-9.6,4-9.3,3.7-11.2-.3-1.9-2.1-3.1-3.7-8.1-1.2-4.1-17-35.7,4.3-38.2,.9-.3-5.2-31.1-25.3-25.7-22.3,5.9-21.1,50.1-21.1,50.1" style="fill:none; stroke:#fff; stroke-linecap:round; stroke-linejoin:bevel; stroke-width:6.7px;"/><path d="M99.9,169.2c-2.9,6.5-2.1,7.3-8.3,12.7-6.4,5.6-2.6,7.1,0,6.9,2.9-.4,9.7-2.4,13.9-14.6,1.4-3.5,0-7.8-1.7-8-1,0-2.1-.6-3.9,3.6h0v-.6Z" style="fill:none; stroke:#fff; stroke-linecap:round; stroke-linejoin:round; stroke-width:6.7px;"/><path d="M99.9,168.6c-.4-3.2,.7-7.6,1.8-12.1,1.4-7.3,5.2-15.7,2.1-34.9-2.1-14.8-16.7,3-16.7,5.4s.8,10.7,0,21.4c-1.1,13.8,5.6,22.1,13.1,17.2" style="fill:none; stroke:#fff; stroke-linecap:round; stroke-linejoin:round; stroke-width:6.7px;"/><path d="M96.3,123.4c0,.6,.7,2.5,2.2,2s2.1-2,2.1-3.1-.7-1.4-2.1-.9-2.2,.8-2.2,2h0Z" style="fill:#fff; stroke:#fff; stroke-width:2.5px;"/><path d="M129.9,108.8c0,.5-.6,2.9-1.8,3.3s-1.9-.3-1.9-1.4,.9-1.9,1.9-2.3,1.8-.7,1.8,.3h0Z" style="fill:#fff; stroke:#fff; stroke-width:.8px;"/><path d="M133.6,102.7c0,5.2-.6,9-.9,14.9,0,8.3,2.1,16.7-1.5,27.7" style="fill:none; stroke:#fff; stroke-linecap:round; stroke-linejoin:round; stroke-width:6.7px;"/></g></g><g id="b"><path d="M75,247.7l-.6-.4c-1-.6-1.8-2-1.8-3.2V108.7c0-1.2,.8-2.6,1.8-3.2L213.2,25.3c1-.6,2.7-.6,3.7,0l.6,.4c1,.6,1.8,2,1.8,3.2V164.3c0,1.2-.8,2.6-1.8,3.2L78.7,247.7c-1,.6-2.7,.6-3.7,0Z" style="fill:#f5f5f5;"/><path d="M81.1,111.5l-8.1-4.7c-.3,.6-.5,1.2-.5,1.8V244.1c0,1.2,.8,2.6,1.8,3.2l.6,.4c1,.6,2.7,.6,3.7,0l2.5-1.4V111.5Z" style="fill:#e0e0e0;"/><path d="M76.8,246.6V111.1c0-1.2,.8-2.6,1.8-3.2L217.6,27.8c1-.6,1.8-.1,1.8,1.1V164.3c0,1.2-.8,2.6-1.8,3.2L78.7,247.7c-1,.6-1.8,.1-1.8-1.1Z" style="fill:#ebebeb;"/><path d="M87.8,112.7L208.5,43c1.3-.7,2.3-.1,2.3,1.3v104.4c0,1.5-1,3.3-2.3,4l-120.7,69.7c-1.3,.7-2.3,.1-2.3-1.3V116.7c0-1.5,1-3.3,2.3-4Z" style="fill:#fff;"/><g><path d="M128.1,103.5l-7.2,21.8-7.4-17.3-26.5,8.2,34,74.4,29.4-94-22.2,6.9Z" style="fill:#78b685;"/><path d="M128.1,103.5l-7.2,21.8-7.4-17.3-12.3,3.8,19.8,44.8,18.1-56.5-10.9,3.4Z" style="fill:#4a5565;"/></g></g><g id="c"><path d="M100.9,262.6l-.6-.4c-1-.6-1.8-2-1.8-3.2V123.6c0-1.2,.8-2.6,1.8-3.2L239.2,40.2c1-.6,2.7-.6,3.7,0l.6,.4c1,.6,1.8,2,1.8,3.2V179.2c0,1.2-.8,2.6-1.8,3.2l-138.9,80.2c-1,.6-2.7,.6-3.7,0Z" style="fill:#f5f5f5;"/><path d="M107.1,126.5l-8.1-4.7c-.3,.6-.5,1.2-.5,1.8v135.4c0,1.2,.8,2.6,1.8,3.2l.6,.4c1,.6,2.7,.6,3.7,0l2.5-1.4V126.5Z" style="fill:#e0e0e0;"/><path d="M102.7,261.6V126.1c0-1.2,.8-2.6,1.8-3.2L243.5,42.7c1-.6,1.8-.1,1.8,1.1V179.2c0,1.2-.8,2.6-1.8,3.2l-138.9,80.2c-1,.6-1.8,.1-1.8-1.1Z" style="fill:#ebebeb;"/><path d="M152.3,142.6l59.3-75.4c.5-.7,1-.3,1,.8v80.6c0,1.1-.4,2.7-1,3.5l-59.3,88.9c-.7,1.1-1.3,.9-1.3-.4v-94c0-1.3,.6-3.1,1.3-4.1Z" style="fill:#fff;"/><path d="M182,126.5c0,.1,0,.3,0,.4v22.1c0,.6-.2,1.2-.5,1.6l-11.3,15.6v21.8c0,.6-.2,1.2-.5,1.7l-25.8,37.1c0,0-.1,.2-.2,.2,0,0,0,0,0,.1-.2,.2-.4,.3-.6,.3,0,0,0,0,0,0,0,0-.1,0-.2,0l-29.4-10.1c-.4-.1-.7-.6-.7-1.3v-77.7c0-.2,0-.3,0-.5,0,0,0-.1,0-.2,0-.1,0-.2,0-.3,0,0,0-.1,0-.2,0,0,0-.2,.1-.3s0-.1,.1-.2c0,0,0-.2,.1-.2h0l15.2-17.5c.4-.4,.9-.6,1.2-.4l14.1,8.1h0s0,0,.1,.1c0,0,0,0,.1,0,0,0,0,.1,0,.2s0,0,0,.1c0,0,0,.2,0,.2,0,0,0,0,0,.1,0,.1,0,.3,0,.4v45.3l11.1-14.6v-22.6c0-.1,0-.3,0-.5,0,0,0,0,0-.2,0,0,0-.2,0-.3,0,0,0-.1,0-.2,0,0,0-.2,0-.2s0-.1,.1-.2c0,0,0-.1,.1-.2h0l12.6-15.9c.3-.4,.7-.5,1-.3l11.8,7.4s0,0,.1,0c0,0,0,0,0,0,0,0,0,.1,0,.2s0,0,0,.1c0,0,0,.1,0,.2,0,0,0,0,0,.1h0Zm-1.9,22.3v-18.5l-4.1,5.4-5.8,7.7v18.9l9.8-13.5h0Zm-11.9,39.2v-19l-5.9,8.1-17.8,24.5v20.3l23.7-33.8h0Zm-52.9-47.3v72.9l26.9,9.4v-20.4l-13.6-5.2h0s0,0-.1,0c0,0,0,0-.1,0h0s0,0-.1-.1c0,0,0,0,0-.1h0c0,0,0-.1,0-.2,0,0,0-.1,0-.2h0c0,0,0-.2,0-.3v-.2h0v-49l-7.2-3.7-5.4-2.7h0Zm13.8-18.2l-12.5,14.5,12.5,6.5,11.9-14.3-11.9-6.7h0Zm6.3,62.8l6.8-8.9v-44.5l-4.9,5.9-6.9,8.4v45.7s5-6.6,5-6.6Zm33.8-63.5l-10.4,13.2,10.4,6,9.9-13-9.9-6.1Zm-1,22.4l-6-3.4-4.5-2.5v19.5l6.1,3.2,4.3,2.2v-19h0Zm-24.8,54.8l16.2-22.1,7.6-10.4-10.5-5.3-12.8,16.9-12.3,16.3,11.7,4.6h0Z" style="fill:#cd3a30; fill-rule:evenodd;"/></g><g id="d"><g><polygon points="124.3 251.2 137.3 243.7 137.3 258.7 124.3 251.2" style="fill:#263238;"/><path d="M137.3,146.6v109.4c0,1.5-1,2.1-2.3,1.3l-10.7-6.2-4.3,2.5,19.3,11.1c1.3,.7,3.3,.7,4.6,0l133.7-77.2c1.3-.7,2.3-2.5,2.3-4V69.3c0-1.5-1-3.2-2.2-3.9-1.2-.7-3.2-.7-4.5,0l-133.7,77.2c-1.3,.7-2.3,2.5-2.3,4Z" style="fill:#263238;"/><path d="M145.9,148.9l134-77.3v-2.3c0-1.5-1-3.2-2.2-3.9-1.2-.7-3.2-.7-4.5,0l-133.7,77.2c-.6,.4-1.2,1-1.6,1.7l8,4.6Z" style="fill:#455a64;"/><path d="M277.6,67.9l-133.7,77.2c-1.3,.7-2.3,2.5-2.3,4v114.4c0,1.5,1,2.1,2.3,1.3l133.7-77.2c1.3-.7,2.3-2.5,2.3-4V69.3c0-1.5-1-2.1-2.3-1.3Z" style="fill:#37474f;"/></g><g style="clip-path:url(#e);"><path d="M259.8,93.3c-3.1,0-5.2-1.8-5.2-4.6l.3-17.3c0-4.7,0-11.9,5.3-15,2.5-1.4,5.2-1.5,7.5-.2,2.2,1.3,3.6,3.7,3.6,6.3s0,3.1-.1,5.1c0,.8-.7,1.5-1.6,1.4-.8,0-1.5-.7-1.4-1.6,0-1.9,.1-3.6,.1-4.9s-.8-2.9-2.1-3.7c-.8-.5-2.4-1-4.5,.2-3.5,2-3.8,7-3.8,12.4l-.3,17.3c0,1.3,1.2,1.6,2.2,1.6,2.6,0,6.1-2.2,6.1-6.2v-6.8c-.1-.8,.5-1.5,1.4-1.5,.8,0,1.5,.6,1.5,1.5v6.9c.1,5.7-4.6,9.3-9,9.3Z" style="fill:#f86305;"/></g><g id="h" style="filter:url(#f);"><path id="i" d="M215,154.5l7.2-2.9c4.3-1.8,4.3,5.6,0,7.4l-7.2,3.1v-7.5Zm-18.1,43.9l23.1-11.5v-10.2l-5,2.3v-7.5l5.5-2.5c5.9-2.7,2.7,16.3,7.5,13.9l12.7-6.3v-16.8l-3,1.3v1.8c0,7.1-4.5,8.4-5.1,4.1-.5-4.3-2.6-7-3.1-6.7,7.7-10.5,3.1-23-3.1-20.6l-26.5,10.2v10.8l5.9-2.4v25.1l-9,4.2v10.8Z" style="fill:#fff; stroke:#fff; stroke-linejoin:round; stroke-width:1.1px;"/><g id="j"><path d="M219.7,126.1c12.6-4.3,22.2,9.3,22.2,30.2s-9.6,43.1-22.2,49.9c-13.4,7.3-25-5.4-25-29s11.6-46.5,25-51.1Z" style="fill:none; stroke:#fff; stroke-width:10.1px;"/><g id="k"><polygon id="l" points="243.3 158.2 245.8 154.5 243.3 153 243.3 158.2" style="stroke:#fff; stroke-linejoin:round; stroke-width:3.4px;"/><polygon id="m" points="242.6 166.4 245.3 163.4 243.2 161 242.6 166.4" style="stroke:#fff; stroke-linejoin:round; stroke-width:3.4px;"/><polygon id="n" points="241.1 174.6 243.9 172.4 242.2 169.1 241.1 174.6" style="stroke:#fff; stroke-linejoin:round; stroke-width:3.4px;"/><polygon id="o" points="238.7 182.5 241.6 181.3 240.4 177.3 238.7 182.5" style="stroke:#fff; stroke-linejoin:round; stroke-width:3.4px;"/><polygon id="p" points="235.6 190 238.5 189.8 237.8 185.1 235.6 190" style="stroke:#fff; stroke-linejoin:round; stroke-width:3.4px;"/><polygon id="q" points="231.9 196.7 234.6 197.5 234.5 192.4 231.9 196.7" style="stroke:#fff; stroke-linejoin:round; stroke-width:3.4px;"/><polygon id="r" points="227.6 202.4 230.1 204.2 230.5 198.8 227.6 202.4" style="stroke:#fff; stroke-linejoin:round; stroke-width:3.4px;"/><polygon id="s" points="222.9 206.9 225 209.7 226.1 204.1 222.9 206.9" style="stroke:#fff; stroke-linejoin:round; stroke-width:3.4px;"/><polygon id="t" points="218 209.9 219.7 213.6 221.3 208 218 209.9" style="stroke:#fff; stroke-linejoin:round; stroke-width:3.4px;"/><polygon id="u" points="213 211.2 214.2 215.8 216.3 210.5 213 211.2" style="stroke:#fff; stroke-linejoin:round; stroke-width:3.4px;"/><polygon id="v" points="208.2 210.8 208.7 216.1 211.4 211.3 208.2 210.8" style="stroke:#fff; stroke-linejoin:round; stroke-width:3.4px;"/><polygon id="w" points="203.7 208.6 203.5 214.4 206.6 210.3 203.7 208.6" style="stroke:#fff; stroke-linejoin:round; stroke-width:3.4px;"/><polygon id="x" points="199.8 204.7 198.9 210.6 202.3 207.5 199.8 204.7" style="stroke:#fff; stroke-linejoin:round; stroke-width:3.4px;"/><polygon id="y" points="196.6 199.1 195 205.1 198.6 203 196.6 199.1" style="stroke:#fff; stroke-linejoin:round; stroke-width:3.4px;"/><polygon id="z" points="194.3 192.1 192.1 197.8 195.7 196.9 194.3 192.1" style="stroke:#fff; stroke-linejoin:round; stroke-width:3.4px;"/><polygon id="aa" points="193 183.9 190.3 189.1 193.7 189.4 193 183.9" style="stroke:#fff; stroke-linejoin:round; stroke-width:3.4px;"/><polygon id="ab" points="192.8 175 189.7 179.4 192.8 181 192.8 175" style="stroke:#fff; stroke-linejoin:round; stroke-width:3.4px;"/><polygon id="ac" points="193.7 165.8 190.3 169.2 193 172 193.7 165.8" style="stroke:#fff; stroke-linejoin:round; stroke-width:3.4px;"/><polygon id="ad" points="195.7 156.6 192.1 158.9 194.3 162.7 195.7 156.6" style="stroke:#fff; stroke-linejoin:round; stroke-width:3.4px;"/><polygon id="ae" points="198.6 148 195 149 196.6 153.6 198.6 148" style="stroke:#fff; stroke-linejoin:round; stroke-width:3.4px;"/><polygon id="af" points="202.3 140.1 198.9 140 199.8 145.2 202.3 140.1" style="stroke:#fff; stroke-linejoin:round; stroke-width:3.4px;"/><polygon id="ag" points="206.6 133.5 203.5 132.2 203.7 137.8 206.6 133.5" style="stroke:#fff; stroke-linejoin:round; stroke-width:3.4px;"/><polygon id="ah" points="211.4 128.3 208.7 125.9 208.2 131.6 211.4 128.3" style="stroke:#fff; stroke-linejoin:round; stroke-width:3.4px;"/><polygon id="ai" points="216.3 124.7 214.2 121.3 213 126.9 216.3 124.7" style="stroke:#fff; stroke-linejoin:round; stroke-width:3.4px;"/><polygon id="aj" points="221.3 122.7 219.7 118.6 218 123.8 221.3 122.7" style="stroke:#fff; stroke-linejoin:round; stroke-width:3.4px;"/><polygon id="ak" points="226.1 122.5 225 117.8 222.9 122.4 226.1 122.5" style="stroke:#fff; stroke-linejoin:round; stroke-width:3.4px;"/><polygon id="al" points="230.5 123.8 230.1 118.8 227.6 122.7 230.5 123.8" style="stroke:#fff; stroke-linejoin:round; stroke-width:3.4px;"/><polygon id="am" points="234.5 126.7 234.6 121.5 231.9 124.6 234.5 126.7" style="stroke:#fff; stroke-linejoin:round; stroke-width:3.4px;"/><polygon id="an" points="237.8 131 238.5 125.8 235.6 128 237.8 131" style="stroke:#fff; stroke-linejoin:round; stroke-width:3.4px;"/><polygon id="ao" points="240.4 136.6 241.6 131.4 238.7 132.8 240.4 136.6" style="stroke:#fff; stroke-linejoin:round; stroke-width:3.4px;"/><polygon id="ap" points="242.2 143.1 243.9 138.3 241.1 138.7 242.2 143.1" style="stroke:#fff; stroke-linejoin:round; stroke-width:3.4px;"/><polygon id="aq" points="243.2 150.4 245.3 146.1 242.6 145.5 243.2 150.4" style="stroke:#fff; stroke-linejoin:round; stroke-width:3.4px;"/></g><g id="ar"><polygon id="as" points="215.8 128.3 219.7 133.5 223.5 125.7 215.8 128.3" style="stroke:#fff; stroke-linejoin:round; stroke-width:6.7px;"/><polygon id="at" points="239.3 140 237.1 148.7 241.5 150.9 239.3 140" style="stroke:#fff; stroke-linejoin:round; stroke-width:6.7px;"/><polygon id="au" points="235.6 185.7 230.6 186.9 229.8 196.2 235.6 185.7" style="stroke:#fff; stroke-linejoin:round; stroke-width:6.7px;"/><polygon id="av" points="209 207.3 208.1 198.4 202.3 202.8 209 207.3" style="stroke:#fff; stroke-linejoin:round; stroke-width:6.7px;"/><polygon id="aw" points="195.2 170.7 200.6 164 197.9 156.5 195.2 170.7" style="stroke:#fff; stroke-linejoin:round; stroke-width:6.7px;"/></g></g></g></g><g id="ax"><path d="M282.4,199.9l-104.3,60.2c-1,.6-1.8,2-1.8,3.2v.7c0,1.2,.8,2.6,1.8,3.2l87.1,50.3c1,.6,2.7,.6,3.7,0l104.3-60.2c1-.6,1.8-2,1.8-3.2v-.7c0-1.2-.8-2.6-1.8-3.2l-87.1-50.3c-1-.6-2.7-.6-3.7,0Z" style="fill:#455a64;"/><path d="M176.2,263.3v.7c0,1.2,.8,2.6,1.8,3.2l87.1,50.3c.5,.3,1.2,.4,1.8,.4v-9.4s-86.4-49.9-86.4-49.9l-2.5,1.4c-1,.6-1.8,2-1.8,3.2Z" style="fill:#263238;"/><path d="M178,260.1l104.3-60.2c1-.6,2.7-.6,3.7,0l87.1,50.3c1,.6,1,1.5,0,2.1l-104.3,60.2c-1,.6-2.7,.6-3.7,0l-87.1-50.3c-1-.6-1-1.5,0-2.1Z" style="fill:#37474f;"/><path d="M191,262.3l67.6,39c1,.6,2.7,.6,3.7,0l91.4-52.8c1-.6,1-1.5,0-2.1l-67.6-39c-1-.6-2.7-.6-3.7,0l-91.4,52.8c-1,.6-1,1.5,0,2.1Z" style="fill:#fff;"/><g style="filter:url(#ay); opacity:.9;"><path d="M252.3,292.1l-11.3-6.5h13.9c.4-.1,.8-.1,1.2-.1h1.4c0,0-7.5-4.1-7.5-4.1l1.7-.9,11.4,6.2-14.2,.2c-.4,0-.8,0-1.2,0-.4,0-.8,0-1.2,0l7.6,4.3-1.7,.9Z" style="fill:#363635;"/><path d="M254.6,279.8c-.3-.1-.4-.3-.4-.5,0-.2,.2-.4,.4-.5,.5-.3,1.4-.3,1.9,0,0,0,0,0,0,0,.3,.1,.4,.3,.4,.5,0,.2-.1,.4-.4,.5-.3,.1-.7,.2-1,.2-.4,0-.7,0-1-.2Zm10.4,5.4l-7.1-3.8,1.6-.9,7.1,3.8-1.6,.9Z" style="fill:#363635;"/><path d="M269.3,282.8l-5.7-3-1.2,.7-1.4-.8,1.2-.7-2.6-1.4,1.6-.8,2.6,1.4,1.2-.6,1.4,.7-1.2,.7,5.7,3-1.6,.9Z" style="fill:#363635;"/><path d="M269,276.6c-.3-.3-.4-.6-.4-.9,0-.3,.3-.5,.7-.7,.2-.1,.5-.2,.7-.3,.3,0,.6-.2,.9-.2l.8,1c-.2,0-.5,0-.7,.1-.2,0-.4,.1-.6,.2-.5,.3-.7,.6-.5,.9,.2,.3,.8,.8,1.8,1.3l3.1,1.6-1.6,.9-7.1-3.7,1.6-.8,1.1,.6Z" style="fill:#363635;"/><path d="M274.8,276c-.5-.3-.9-.6-1.2-.9-.3-.3-.4-.7-.4-1.1,0-.4,.1-.7,.4-1,.5-.7,1.5-1.2,2.8-1.5,.6-.1,1.3-.2,2-.2,.7,0,1.4,0,2,.2,1.3,.3,2.3,.8,2.9,1.5,.3,.3,.4,.7,.4,1,0,.4,0,.7-.3,1.1-.5,.7-1.5,1.2-2.8,1.5-.6,.1-1.3,.2-2,.2-.7,0-1.4,0-2.1-.2-.7-.1-1.3-.3-1.8-.6Zm5.8-3.1c-.6-.3-1.4-.5-2.3-.5-.8,0-1.6,.1-2.1,.4-.6,.3-.8,.7-.8,1.1,.1,.9,1.6,1.6,3.4,1.7,1.6,0,2.9-.6,2.9-1.4,0,0,0,0,0-.1,0-.4-.4-.9-1.1-1.2h0Z" style="fill:#363635;"/><path d="M285.4,264.4l9.4,4.5-1.6,.9-9.4-4.5-2.6,1.4-1.5-.7,6.8-3.5,1.5,.7-2.6,1.3Z" style="fill:#363635;"/><path d="M299.7,262.9l-4.9,2.6c.7,.3,1.4,.4,2.1,.5,.7,0,1.4-.1,1.8-.4,.4-.2,.7-.5,.8-.8,0-.3,0-.6-.3-.9l1.9-.3c.4,.5,.5,1,.3,1.4s-.6,.9-1.3,1.2c-1,.5-2.1,.8-3.4,.8s-2.5-.3-3.7-.8-1.7-1.1-1.8-1.8,.3-1.2,1.3-1.7,2.1-.8,3.3-.8,2.4,.3,3.5,.8h.3Zm-2.5,.4c-.5-.2-1.1-.3-1.7-.3-.5,0-1.1,.2-1.5,.4s-.7,.5-.7,.8,.2,.6,.6,.9l3.4-1.8Z" style="fill:#363635;"/><path d="M303.8,258.9c-.5,0-.9,0-1.3,.1-.4,0-.8,.2-1.1,.4-.6,.3-.8,.6-.7,1s.5,.7,1.2,1,1.5,.5,2.3,.5,1.4-.1,2-.5c.3-.2,.5-.4,.7-.6,.1-.2,.1-.4,0-.7l1.9,.8c0,.2-.2,.4-.4,.6-.2,.2-.5,.4-.8,.6-.9,.5-2.1,.8-3.4,.8s-2.5-.3-3.7-.8-1.8-1.1-1.8-1.8,.4-1.2,1.4-1.7c.3-.2,.6-.3,1-.4,.3-.1,.7-.2,1.1-.2l1.8,.8Z" style="fill:#363635;"/><path d="M310.2,260.5l-11.5-5.1,1.3-.7,5.5,2.5c-.2-.3-.3-.7-.1-1,.2-.3,.5-.6,1-.8,.4-.2,.8-.4,1.4-.5,.4,0,.9-.1,1.4,0,.3,0,.6,0,.9,.2,.5,.2,1,.3,1.4,.5l4.3,1.9-1.3,.7-3.6-1.6c-.9-.4-1.6-.6-2.1-.7s-1,0-1.4,.3c-.3,.1-.5,.3-.6,.5-.1,.2-.1,.4,0,.6,0,.1,.2,.3,.4,.4,.4,.2,.8,.4,1.2,.6l3.2,1.4-1.3,.7Z" style="fill:#363635;"/><path d="M326.9,251.4l-3.7-.7-3.4,1.8,1.8,1.7-1.5,.8-7-7,15.2,2.5-1.4,.8Zm-8.1,.3l2.4-1.3-3.3-.6c-.2,0-.4,0-.7-.1l-.8-.2c.2,.1,.4,.2,.5,.3s.3,.2,.4,.3l1.6,1.5Z" style="fill:#363635;"/><path d="M327.1,250l.3-.9c.4,0,.8,.1,1.2,.1,.4,0,.8-.2,1.1-.3,.2-.1,.4-.3,.4-.5,0-.2-.2-.3-.5-.4-.4-.2-1-.1-1.8,0h-.7c-.9,.3-1.6,.4-2.1,.4-.5,0-1.1-.1-1.5-.3-.6-.2-.9-.6-.9-.9,0-.4,.3-.7,.9-1,.4-.2,.8-.3,1.3-.4,.5,0,1,0,1.5,0v.8c-.4,0-.7,0-.9,0-.3,0-.6,.1-.8,.2-.2,.1-.3,.2-.3,.4,0,.1,.1,.3,.4,.3,.4,.1,1,.1,1.9-.1l.7-.2c.7-.2,1.4-.2,1.9-.2,.6,0,1.1,.1,1.5,.3,.7,.3,1.1,.6,1.1,1s-.3,.7-1,1.1-1.1,.5-1.7,.6c-.6,0-1.3,0-2,0Z" style="fill:#363635;"/><path d="M323.8,243.6c-.3-.1-.4-.2-.5-.4,0-.1,0-.3,.3-.4,.4-.2,1.1-.2,1.6,0,0,0,0,0,0,0,.3,.1,.4,.2,.5,.4,0,.1,0,.3-.2,.4-.2,.1-.5,.2-.8,.2-.3,0-.7,0-.9-.2Zm10.1,3.9l-7-2.8,1.2-.6,7,2.8-1.2,.7Z" style="fill:#363635;"/><path d="M341.6,243.3l-1.2,.6-.9-.4c.2,.3,.3,.5,.2,.8,0,.2-.3,.5-.7,.6-.7,.4-1.6,.6-2.7,.5-1.1,0-2.2-.3-3.4-.8s-1.8-.9-2-1.4c-.3-.8,.5-1.5,2.1-1.7,.5,0,1.1,0,1.7,0l-1.1-.4,1.2-.6,6.9,2.7Zm-4.6-.8c-.7-.3-1.4-.4-2-.5-.6,0-1.2,0-1.6,.3s-.6,.5-.4,.8,.6,.6,1.3,.9,1.4,.5,2.1,.5,1.2,0,1.7-.3c.4-.2,.5-.5,.4-.8-.2-.3-.6-.6-1.3-.9Z" style="fill:#363635;"/><path d="M287.1,231.4l-8.6,4.1,13.1,1.9-8.5,4,5.2,5.9,16.2-8,13.2,2,8.1-4.2-38.8-5.7Z" style="fill:#d9631a;"/><polygon points="280.7 260.4 290.5 255.3 273.8 235.4 283.4 231 270.9 229.1 247.5 239.3 251.7 245.3 264.6 239.5 280.7 260.4" style="fill:#363635;"/><polygon points="262.5 242.6 252.8 247 261.5 259.7 241.2 256.3 245.6 263.9 266.6 267.5 277.1 262.2 262.5 242.6" style="fill:#d9631a;"/><polygon points="254.3 256.3 249.3 249 231.6 246.2 219.7 251.4 236.3 283 248.5 276.8 234.5 253 254.3 256.3" style="fill:#363635;"/></g></g><g id="ba"><g><polygon points="353.3 173.9 353.3 134 405.2 104 405.2 143.9 353.3 173.9" style="fill:#ebebeb;"/><polygon points="353.3 134 288.5 96.5 288.5 136.5 353.3 173.9 353.3 134" style="fill:#e6e6e6;"/><polygon points="353.3 134 406.7 103.1 340.4 64.8 287 95.6 353.3 134" style="fill:#f0f0f0;"/><polygon points="353.3 134 353.3 143.9 406.7 113.1 406.7 103.1 353.3 134" style="fill:#ebebeb;"/><polygon points="353.3 143.9 405.2 114 405.2 116.2 353.3 146.1 353.3 143.9" style="fill:#e6e6e6;"/><polygon points="287 95.6 353.3 134 353.3 143.9 287 105.6 287 95.6" style="fill:#ebebeb;"/><polygon points="353.3 143.9 288.5 106.5 288.5 108.7 353.3 146.1 353.3 143.9" style="fill:#e0e0e0; mix-blend-mode:multiply; opacity:.5;"/><path d="M370.4,140l17.7-10.2c.8-.4,1.4,0,1.4,.8v10.5c0,.9-.6,2-1.4,2.4l-17.7,10.2c-.8,.4-1.4,0-1.4-.8v-10.5c0-.9,.6-2,1.4-2.4Z" style="fill:#e0e0e0;"/><path d="M371.6,141.2l15.4-8.9c.5-.3,.9,0,.9,.5v7.9c0,.6-.4,1.3-.9,1.6l-15.4,8.9c-.5,.3-.9,0-.9-.5v-7.9c0-.6,.4-1.3,.9-1.6Z" style="fill:#fff;"/></g><g><polygon points="353.3 128.9 353.3 89 405.2 59.1 405.2 99 353.3 128.9" style="fill:#ebebeb;"/><polygon points="353.3 89 288.5 51.6 288.5 91.5 353.3 128.9 353.3 89" style="fill:#e6e6e6;"/><polygon points="353.3 89 406.7 58.2 340.4 19.9 287 50.7 353.3 89" style="fill:#f5f5f5;"/><polygon points="353.3 89 353.3 99 406.7 68.2 406.7 58.2 353.3 89" style="fill:#ebebeb;"/><polygon points="353.3 99 405.2 69.1 405.2 71.3 353.3 101.2 353.3 99" style="fill:#e6e6e6;"/><polygon points="287 50.7 353.3 89 353.3 99 287 60.7 287 50.7" style="fill:#ebebeb;"/><polygon points="353.3 99 288.5 61.6 288.5 63.8 353.3 101.2 353.3 99" style="fill:#e0e0e0; mix-blend-mode:multiply; opacity:.5;"/><path d="M370.4,95.1l17.7-10.2c.8-.4,1.4,0,1.4,.8v10.5c0,.9-.6,2-1.4,2.4l-17.7,10.2c-.8,.4-1.4,0-1.4-.8v-10.5c0-.9,.6-2,1.4-2.4Z" style="fill:#e0e0e0;"/><path d="M371.6,96.3l15.4-8.9c.5-.3,.9,0,.9,.5v7.9c0,.6-.4,1.3-.9,1.6l-15.4,8.9c-.5,.3-.9,0-.9-.5v-7.9c0-.6,.4-1.3,.9-1.6Z" style="fill:#fff;"/></g><polygon points="402.4 100.6 353.3 128.9 291.3 93.1 289.8 94 353.3 130.6 403.9 101.5 402.4 100.6" style="fill:#e0e0e0;"/></g></g></g></g></svg>