<?xml version="1.0" encoding="UTF-8"?><svg id="a" xmlns="http://www.w3.org/2000/svg" viewBox="0 0 117.1 148.2"><path d="M17.7,88.1c-3-4.9-5.3-10.3-6.6-15.9-.5-2.2-.9-4.5-1-6.8,4.7-5.6,10.3-10.2,17.3-13.7,11.6-5.7,24.4-7.9,37.1-9.3l1.3,17.6L117.1,26.6,61.3,0l1.2,16.2c-20.9,3.9-40.8,12.3-50.4,33-4.6,10.1-8.7,21-11.1,31.8-1.4,6.3-1.4,12.7,0,19,2.9,12.6,10.7,23.8,20.4,32.1,10.6,9,23.8,14.6,37.7,16.1,1.5,.2,5.3-12.3,5.8-13.7,.4-1,4.5-14.2,4.2-14.2-20.9-2.2-40.6-14.1-51.6-32.2Z" style="fill:#1d1d1b;"/></svg>