<?xml version="1.0" encoding="UTF-8"?><svg id="a" xmlns="http://www.w3.org/2000/svg" viewBox="0 0 173.4 63.3"><path d="M173.4,62.9c-.3,.9-.7,.2-1.4-.6-1.5-1.6-2.7-3.7-3.8-5.6,.5,.8-1.4-2-1.3-1.8-.8-1.1-1.7-2.2-2.6-3.2-2.1-2.4-4.3-4.7-6.6-6.9-4.7-4.3-9.8-8.2-15.2-11.5-11.1-6.7-23.6-11.1-36.5-12.5-23.8-2.6-48.2,4.8-66.8,19.7l6.8,7.9L0,58.2,15.9,13.5l8.1,9.5C39.9,9,60.5,.8,81.7,0c21.3-.7,42.5,6.6,59.3,19.8,10.6,8.3,18.7,18.8,25.8,30.1,1.6,2.5,3.1,5.2,4.4,7.9,.2,.4,2.4,4.2,2.1,5Z" style="fill:#1d1d1b;"/></svg>