<svg xmlns="http://www.w3.org/2000/svg" viewBox="0 0 900 535"><path d="M50,763.7V664.1l60.9,58.6c1.7,1.7,3.3,3.4,5,5.3l5.4,6.3V667.9h14.4v99.6L73.6,707.8a57.9,57.9,0,0,1-4.8-5.1,61.2,61.2,0,0,1-4.5-5.6v66.6Z" transform="translate(-50 -232.5)" style="fill:#333332"/><path d="M155.3,674.8a8.7,8.7,0,0,1,2.6-6.2,9,9,0,0,1,6.4-2.6,8.5,8.5,0,0,1,8.8,8.8,8.7,8.7,0,0,1-2.6,6.4,8.5,8.5,0,0,1-6.2,2.6,8.7,8.7,0,0,1-6.4-2.7A8.6,8.6,0,0,1,155.3,674.8Zm1.9,88.9v-62h14.2v62Z" transform="translate(-50 -232.5)" style="fill:#333332"/><path d="M195,763.7V714.1H184.2V701.7H195V678.2h14.2v23.5h10.9v12.4H209.2v49.6Z" transform="translate(-50 -232.5)" style="fill:#333332"/><path d="M246.6,711.6c1.5-4.1,3.5-7.2,6-9.1a14.5,14.5,0,0,1,9.4-3,29.7,29.7,0,0,1,5.9.7,32.8,32.8,0,0,1,5.7,2.1l-5.1,12.1a13.6,13.6,0,0,0-4-2,17.3,17.3,0,0,0-4.7-.6q-7.1,0-10.2,5.7c-2,3.8-3,10.1-3,19v27.2H232.4V701.5h14.2Z" transform="translate(-50 -232.5)" style="fill:#333332"/><path d="M277.1,732.8a32.7,32.7,0,0,1,2.6-12.9,34.4,34.4,0,0,1,7.5-10.8,32.6,32.6,0,0,1,11-7.1,35.6,35.6,0,0,1,26.2,0,35.1,35.1,0,0,1,11.1,7.3,34.4,34.4,0,0,1,7.5,10.8,34,34,0,0,1,0,25.6,32.2,32.2,0,0,1-7.4,10.6,36,36,0,0,1-11.3,7.5,35.3,35.3,0,0,1-26.1,0,33.6,33.6,0,0,1-11-7.3,34.3,34.3,0,0,1-7.5-10.9A32.5,32.5,0,0,1,277.1,732.8Zm53.4.1a20.2,20.2,0,0,0-5.6-14.6,17.8,17.8,0,0,0-13.6-6,18.1,18.1,0,0,0-13.6,6,21.8,21.8,0,0,0,0,29.2,18.4,18.4,0,0,0,27.2,0A20.6,20.6,0,0,0,330.5,732.9Z" transform="translate(-50 -232.5)" style="fill:#333332"/><path d="M433.2,681.1v82.6H417.6V681.1H392.1V667.9h66.4v13.2Z" transform="translate(-50 -232.5)" style="fill:#333332"/><path d="M515.6,734.8H465.9c.4,5.8,2.1,10.3,5.2,13.6a16.5,16.5,0,0,0,12.4,4.9,21,21,0,0,0,11.4-2.9c3.1-1.9,5.7-5,8-9.3l12,6.7c-3.5,6.2-7.8,10.9-13,13.9s-11.2,4.6-18.1,4.6c-10,0-17.9-3-23.8-9.1s-8.8-14.2-8.8-24.3,3-17.7,9.1-24,13.9-9.4,23.5-9.4,17.8,2.9,23.4,8.6,8.4,13.7,8.4,24Zm-14.8-9.6a14.7,14.7,0,0,0-5.1-10.1c-2.8-2.4-6.7-3.5-11.6-3.5s-8.5,1.1-11.3,3.4-4.8,5.7-6,10.2Z" transform="translate(-50 -232.5)" style="fill:#333332"/><path d="M576.7,719.4a21.5,21.5,0,0,0-7.6-5.5,22.9,22.9,0,0,0-9.4-1.9c-5.8,0-10.5,1.8-14,5.6s-5.2,8.7-5.2,14.9,1.8,11.6,5.3,15.2,8.3,5.6,14.5,5.6a21.2,21.2,0,0,0,9.3-2,18.6,18.6,0,0,0,7.1-5.8v16.3a34.4,34.4,0,0,1-8.4,3.4,41.9,41.9,0,0,1-9.5,1.1c-9.8,0-17.7-3.1-23.8-9.3s-9.2-14.2-9.2-24.1,3.1-18.1,9.5-24.2,14.6-9.2,24.9-9.2a35.7,35.7,0,0,1,8.9,1,27.8,27.8,0,0,1,7.6,2.9Z" transform="translate(-50 -232.5)" style="fill:#333332"/><path d="M591.2,763.7V662.3h13.4v49.5a25.9,25.9,0,0,1,10-9.3,30.2,30.2,0,0,1,14-3,28.4,28.4,0,0,1,11.9,2.2,17.8,17.8,0,0,1,7.6,6.5,16,16,0,0,1,2.3,6,62.5,62.5,0,0,1,.8,11.9v37.6H636.8V731.9c0-8.2-1-13.6-3-16.3s-5.5-4-10.5-4a20.8,20.8,0,0,0-8.9,1.8,14.1,14.1,0,0,0-6.1,5.2,13.4,13.4,0,0,0-2.2,5.7,73.8,73.8,0,0,0-.6,11.2v28.2Z" transform="translate(-50 -232.5)" style="fill:#333332"/><path d="M775,763.7l-10.8-24.6h-38l-11.1,24.6H698.7l46.4-99.6,46.4,99.6Zm-43-37.6h26.7l-9.8-21.9q-.9-2.1-1.8-4.8l-1.9-6c-.5,2.1-1,4-1.6,5.8s-1.2,3.5-1.8,5Z" transform="translate(-50 -232.5)" style="fill:#333332"/><path d="M792.2,752.5l11.8-6.4a12.3,12.3,0,0,0,4.8,7,15.3,15.3,0,0,0,9.1,2.5,12,12,0,0,0,7.5-2.2,7.4,7.4,0,0,0,2.7-6q0-5.1-9.6-8.7l-5.1-1.9c-6.6-2.8-11.3-5.6-13.9-8.4a14.8,14.8,0,0,1-4-10.4,16.2,16.2,0,0,1,6.6-13.4c4.3-3.5,10-5.2,17.2-5.2a27.2,27.2,0,0,1,12.3,2.6,15.8,15.8,0,0,1,7.5,7.6l-10,6.9a9.7,9.7,0,0,0-3.9-4.6,11.8,11.8,0,0,0-6.5-1.8,10.1,10.1,0,0,0-6.5,2,6.2,6.2,0,0,0-2.5,5.1c0,3.2,3.7,6.2,11,8.8l5.4,2.1c5.7,2.2,9.8,4.8,12.3,7.7a15.5,15.5,0,0,1,3.7,10.7c0,6.2-2.3,11-6.8,14.5s-10.6,5.3-18.5,5.3c-6.1,0-11.2-1.1-15.2-3.4A23.3,23.3,0,0,1,792.2,752.5Z" transform="translate(-50 -232.5)" style="fill:#333332"/><path d="M855.2,674.8a8.7,8.7,0,0,1,2.6-6.2,9,9,0,0,1,6.4-2.6,8.5,8.5,0,0,1,8.8,8.8,8.7,8.7,0,0,1-2.6,6.4,8.5,8.5,0,0,1-6.2,2.6,8.7,8.7,0,0,1-6.4-2.7A8.6,8.6,0,0,1,855.2,674.8Zm1.9,88.9v-62h14.2v62Z" transform="translate(-50 -232.5)" style="fill:#333332"/><path d="M950,763.7H935.8v-8a24.9,24.9,0,0,1-8.9,8,25.4,25.4,0,0,1-11.6,2.6q-13.2,0-20.7-9c-5.1-6-7.6-14.2-7.6-24.7s2.6-17.9,7.7-24a27.3,27.3,0,0,1,33.2-5.9,19,19,0,0,1,7.9,9.1V701.7H950Zm-13.8-31.2q0-9.6-4.5-15c-3-3.6-7.2-5.3-12.5-5.3s-9.6,1.8-12.7,5.5-4.6,8.8-4.6,15.3,1.5,11.7,4.4,15.3,7.2,5.4,12.6,5.4a15.5,15.5,0,0,0,12.5-5.9C934.6,744,936.2,738.8,936.2,732.5Z" transform="translate(-50 -232.5)" style="fill:#333332"/><path d="M818.5,349.5,719,351.9l45.2,91.9H670.7l-42.1,88.7H808l44,89.3,98-1.2Z" transform="translate(-50 -232.5)" style="fill:#f86305"/><polygon points="401.3 389.3 501.2 389.3 646.2 91.8 754.4 91.4 710.4 0.3 460.4 0 416.1 91.9 547.5 91.9 401.3 389.3" style="fill:#333332"/><polygon points="501.2 116.9 403.2 116.7 316.2 292.1 251.3 159.2 202 257.1 266.7 388.8 366.6 389.3 501.2 116.9" style="fill:#f86305"/><polygon points="314.9 222.7 365 120.6 304.6 0 193 0 0 389.3 103.5 389 250.3 91.5 314.9 222.7" style="fill:#333332"/></svg>